<svg width="24" height="24" viewBox="0 0 24 24" fill="none" xmlns="http://www.w3.org/2000/svg">
<path d="M23.9374 9.06931C23.7803 8.5622 23.3492 8.20203 22.8393 8.15407L15.9122 7.49773L13.1731 0.807668C12.9711 0.317373 12.5112 0 12.0001 0C11.489 0 11.0291 0.317373 10.8271 0.808815L8.08796 7.49773L1.15981 8.15407C0.650769 8.20317 0.220827 8.5622 0.0628036 9.06931C-0.0952201 9.57642 0.0507184 10.1326 0.435798 10.4833L5.67182 15.275L4.12784 22.3721C4.01486 22.8939 4.20896 23.4333 4.62388 23.7463C4.84691 23.9144 5.10784 24 5.37097 24C5.59785 24 5.82289 23.9362 6.02486 23.8101L12.0001 20.0836L17.9731 23.8101C18.4102 24.0845 18.9612 24.0594 19.3752 23.7463C19.7903 23.4323 19.9842 22.8927 19.8713 22.3721L18.3273 15.275L23.5633 10.4842C23.9484 10.1326 24.0954 9.57738 23.9374 9.06931Z" fill="#EB7300"/>
</svg>
