<svg width="24" height="24" viewBox="0 0 24 24" fill="none" xmlns="http://www.w3.org/2000/svg">
<path d="M18.3771 23.9999C18.057 23.9996 17.7443 23.8991 17.479 23.7113L12.076 19.9136C12.0494 19.8943 12.0179 19.884 11.9855 19.884C11.9532 19.884 11.9216 19.8943 11.895 19.9136L6.49204 23.7113C6.22073 23.9013 5.90073 24.0002 5.57453 23.995C5.24834 23.9897 4.93138 23.8805 4.66576 23.6819C4.40013 23.4833 4.1984 23.2046 4.08736 22.8829C3.97632 22.5612 3.96121 22.2117 4.04406 21.8808L5.81848 15.3183C5.82687 15.2853 5.82585 15.2504 5.81556 15.218C5.80526 15.1856 5.78613 15.1571 5.76054 15.136L0.647301 10.9205C0.378123 10.7102 0.178453 10.4168 0.0762871 10.0815C-0.0258785 9.74621 -0.0254163 9.38577 0.0776091 9.05074C0.180634 8.71572 0.381057 8.42291 0.650773 8.21337C0.920489 8.00383 1.24597 7.88807 1.58159 7.88232L8.09989 7.62407C8.13193 7.62175 8.16266 7.60976 8.18836 7.58955C8.21406 7.56934 8.23364 7.54176 8.24474 7.51014L10.4899 1.10716C10.6031 0.782555 10.8086 0.502265 11.0787 0.304235C11.3488 0.106205 11.6704 0 12 0C12.3296 0 12.6512 0.106205 12.9213 0.304235C13.1914 0.502265 13.3969 0.782555 13.5101 1.10716L15.7553 7.51014C15.7664 7.54176 15.7859 7.56934 15.8116 7.58955C15.8373 7.60976 15.8681 7.62175 15.9001 7.62407L22.4184 7.88232C22.754 7.88807 23.0795 8.00383 23.3492 8.21337C23.6189 8.42291 23.8194 8.71572 23.9224 9.05074C24.0254 9.38577 24.0259 9.74621 23.9237 10.0815C23.8215 10.4168 23.6219 10.7102 23.3527 10.9205L18.2395 15.136C18.2131 15.1564 18.1934 15.1849 18.183 15.2175C18.1726 15.2502 18.1721 15.2853 18.1815 15.3183L19.9559 21.8808C20.0182 22.1325 20.0244 22.3959 19.974 22.6505C19.9236 22.9051 19.818 23.1442 19.6653 23.3491C19.5126 23.554 19.317 23.7193 19.0936 23.8322C18.8702 23.945 18.625 24.0024 18.3771 23.9999V23.9999ZM11.9891 18.3641C12.3099 18.3744 12.6202 18.4855 12.88 18.6831L18.2829 22.4808C18.3103 22.5027 18.3437 22.5146 18.3781 22.5149C18.4125 22.5152 18.446 22.5038 18.4737 22.4824C18.5014 22.461 18.5218 22.4309 18.5318 22.3963C18.5418 22.3618 18.5409 22.3249 18.5292 22.2909L16.7547 15.7284C16.6674 15.4065 16.6739 15.0646 16.7732 14.7465C16.8726 14.4285 17.0604 14.1488 17.3124 13.9435L22.4257 9.72802C22.4535 9.70748 22.4744 9.67809 22.4852 9.64418C22.496 9.61027 22.4961 9.57363 22.4856 9.53963C22.4751 9.50564 22.4544 9.47608 22.4267 9.4553C22.3989 9.43453 22.3656 9.42363 22.3315 9.4242L15.8132 9.16596C15.494 9.15291 15.1858 9.04046 14.9278 8.84296C14.6698 8.64545 14.4738 8.37184 14.3647 8.05702L12.1195 1.65403C12.1094 1.62003 12.0892 1.59032 12.0618 1.56922C12.0344 1.54812 12.0014 1.53674 11.9674 1.53674C11.9334 1.53674 11.9004 1.54812 11.873 1.56922C11.8457 1.59032 11.8254 1.62003 11.8153 1.65403L9.59185 8.04942C9.48275 8.36425 9.2867 8.63786 9.02872 8.83536C8.77074 9.03287 8.46251 9.14531 8.14334 9.15836L1.62505 9.41661C1.59096 9.41603 1.5576 9.42693 1.52987 9.44771C1.50213 9.46848 1.48148 9.49804 1.47094 9.53204C1.4604 9.56603 1.46054 9.60268 1.47133 9.63659C1.48212 9.67049 1.503 9.69988 1.53089 9.72043L6.65138 13.9435C6.90265 14.1495 7.08984 14.4292 7.18914 14.747C7.28845 15.0648 7.29538 15.4065 7.20905 15.7284L5.44187 22.2909C5.43132 22.3238 5.43127 22.3594 5.44173 22.3923C5.45218 22.4252 5.47257 22.4536 5.49981 22.4732C5.52605 22.4968 5.55944 22.5097 5.59396 22.5097C5.62849 22.5097 5.66188 22.4968 5.68812 22.4732L11.0911 18.6755C11.3551 18.4918 11.665 18.394 11.9819 18.3945L11.9891 18.3641Z" fill="#EB7300"/>
</svg>
