<svg width="58" height="58" viewBox="0 0 58 58" fill="none" xmlns="http://www.w3.org/2000/svg">
<path d="M41.7801 0H11.7931C10.5118 0 9.47314 1.03864 9.47314 2.32003V55.68C9.47314 56.9612 10.5118 58 11.7932 58H49.6863C50.9676 58 52.0064 56.9614 52.0064 55.68V10.2263L41.7801 0Z" fill="#E1E6E9"/>
<path d="M52.006 31.9624H5.99268V47.8529H52.006V31.9624Z" fill="#27A2DB"/>
<path d="M22.6315 36.3805C23.5687 37.2289 24.0362 38.4089 24.0362 39.9206C24.0362 41.4318 23.5823 42.6282 22.6733 43.5088C21.7644 44.39 20.3733 44.8303 18.5011 44.8303H15.2739V35.1077H18.612C20.3552 35.1077 21.6954 35.5321 22.6315 36.3805ZM22.3813 39.9619C22.3813 37.7365 21.1067 36.6238 18.5566 36.6238H16.9152V43.2862H18.7376C19.9149 43.2862 20.817 43.0061 21.443 42.4447C22.0688 41.884 22.3813 41.0565 22.3813 39.9619Z" fill="#EBF0F3"/>
<path d="M34.2864 43.4882C33.3038 44.4481 32.0893 44.928 30.6427 44.928C29.1961 44.928 27.9816 44.4481 26.999 43.4882C26.0154 42.529 25.5242 41.3324 25.5242 39.9C25.5242 38.4671 26.0154 37.2711 26.999 36.3113C27.9816 35.3514 29.1961 34.8721 30.6427 34.8721C32.0893 34.8721 33.3038 35.3514 34.2864 36.3113C35.27 37.2711 35.7612 38.4671 35.7612 39.9C35.7612 41.3324 35.27 42.5289 34.2864 43.4882ZM33.0842 37.403C32.4209 36.7171 31.607 36.3742 30.6427 36.3742C29.6782 36.3742 28.8644 36.7171 28.2012 37.403C27.539 38.0896 27.2073 38.9215 27.2073 39.9C27.2073 40.8786 27.539 41.7105 28.2012 42.3965C28.8645 43.083 29.6784 43.4259 30.6427 43.4259C31.6071 43.4259 32.421 43.083 33.0842 42.3965C33.7463 41.7105 34.078 40.8785 34.078 39.9C34.078 38.9216 33.7465 38.0894 33.0842 37.403Z" fill="#EBF0F3"/>
<path d="M42.2709 43.3422C42.8357 43.3422 43.3224 43.2477 43.7312 43.0576C44.1386 42.8675 44.5654 42.5635 45.0113 42.1464L46.0674 43.2314C45.0384 44.3718 43.7889 44.9423 42.3196 44.9423C40.8492 44.9423 39.6301 44.4692 38.6612 43.5234C37.6923 42.5777 37.2078 41.3812 37.2078 39.9346C37.2078 38.488 37.7013 37.283 38.6894 36.3181C39.6764 35.3542 40.9239 34.8721 42.4304 34.8721C43.937 34.8721 45.1957 35.4284 46.2065 36.5411L45.164 37.6816C44.6999 37.2367 44.2619 36.9261 43.8487 36.7494C43.4366 36.5735 42.9522 36.4851 42.3953 36.4851C41.4127 36.4851 40.5876 36.8032 39.9198 37.4382C39.252 38.0732 38.9181 38.8848 38.9181 39.8724C38.9181 40.86 39.2497 41.6852 39.913 42.3479C40.5765 43.0111 41.362 43.3422 42.2709 43.3422Z" fill="#EBF0F3"/>
<path d="M5.99268 47.8525L9.47273 51.0885V47.8525H5.99268Z" fill="#2D93BA"/>
<path d="M41.7797 10.2263H52.0058L41.7795 0L41.7797 10.2263Z" fill="#EBF0F3"/>
<path d="M43.748 10.2258L52.0068 15.0175V10.2258H43.748Z" fill="#D5D6DB"/>
</svg>
