<svg width="58" height="58" viewBox="0 0 58 58" fill="none" xmlns="http://www.w3.org/2000/svg">
<path d="M52.2079 19.1878H24.9915C24.0846 19.1876 23.2181 18.8123 22.5978 18.1508L19.0901 14.411C18.4687 13.7489 17.601 13.3737 16.6929 13.3748H5.26717C3.45456 13.3748 1.98511 14.8442 1.98511 16.6568V53.2605C1.98511 55.0751 3.45612 56.5461 5.27077 56.5461H52.2015C54.0162 56.5461 55.4872 55.0751 55.4872 53.2605V22.47C55.4872 20.6583 54.0194 19.1893 52.2079 19.1878Z" fill="#EAB54E"/>
<path d="M9.84204 1.45337H49.7292V37.1672H9.84204V1.45337Z" fill="#DBD8DD"/>
<path d="M7.74829 4.76953H46.4209V39.2695H7.74829V4.76953Z" fill="#EEEFEE"/>
<path d="M12.1213 9.15649H42.0497V10.7268H12.1213V9.15649Z" fill="#DBD8DD"/>
<path d="M12.1213 14.1443H42.0497V15.7146H12.1213V14.1443Z" fill="#DBD8DD"/>
<path d="M12.1213 19.1331H42.0497V20.7033H12.1213V19.1331Z" fill="#DBD8DD"/>
<path d="M54.7196 24.4536H24.9886C24.0839 24.4536 23.2194 24.827 22.5991 25.4856L19.09 29.2111C18.4698 29.8697 17.6053 30.2431 16.7005 30.2431H3.28218C1.46958 30.2432 0.000120024 31.7126 0 33.5252C0 33.6249 0.00456092 33.7245 0.0135627 33.8238L1.71118 53.5586C1.86554 55.2506 3.28434 56.5458 4.9834 56.5458H52.4886C54.1878 56.5458 55.6067 55.2503 55.7608 53.558L57.9861 28.0349C58.1513 26.2299 56.822 24.6326 55.0169 24.4673C54.918 24.4583 54.8189 24.4537 54.7196 24.4536Z" fill="#F6C863"/>
</svg>
