<svg width="39" height="39" viewBox="0 0 39 39" fill="none" xmlns="http://www.w3.org/2000/svg">
<circle cx="19.5" cy="19.5" r="19.5" fill="#59BC5A"/>
<path d="M28.7308 17.3284L28.7306 17.3278C28.6629 17.1092 28.4844 16.9712 28.2921 16.9531L28.2917 16.9531L22.8078 16.4335L22.5068 16.405L22.3923 16.1252L20.2242 10.8298C20.2241 10.8297 20.224 10.8295 20.224 10.8293C20.137 10.6189 19.9492 10.5 19.7579 10.5C19.5668 10.5 19.3789 10.6187 19.2919 10.8299C19.2919 10.8301 19.2918 10.8302 19.2917 10.8304L17.1235 16.1252L17.0089 16.405L16.7079 16.4335L11.224 16.953C11.2239 16.953 11.2238 16.953 11.2237 16.953C11.0314 16.9717 10.8532 17.1094 10.7849 17.3286C10.7158 17.5503 10.7826 17.7867 10.9394 17.9295L10.9404 17.9304L15.0856 21.7239L15.2977 21.918L15.2366 22.199L14.0144 27.817C14.0143 27.8172 14.0143 27.8173 14.0143 27.8174C14.0143 27.8175 14.0143 27.8175 14.0143 27.8175C13.9647 28.0474 14.0527 28.2741 14.2195 28.3999C14.3103 28.4684 14.4114 28.5 14.5098 28.5C14.5944 28.5 14.681 28.4765 14.7627 28.4255L14.7629 28.4254L19.4933 25.4752L19.7579 25.3102L20.0225 25.4753L24.7512 28.4254L24.7524 28.4262C24.9211 28.5321 25.1315 28.5239 25.2949 28.4004L25.2949 28.4003C25.4626 28.2735 25.5502 28.0461 25.5007 27.8175L28.7308 17.3284ZM28.7308 17.3284C28.7997 17.55 28.7331 17.7864 28.575 17.9308L28.5746 17.9311L24.4294 21.7238L24.2172 21.918L24.2783 22.199L25.5006 27.8172L28.7308 17.3284Z" stroke="white"/>
</svg>
