<svg width="45" height="45" viewBox="0 0 45 45" fill="none" xmlns="http://www.w3.org/2000/svg">
<path d="M40.5 0H4.5C2.025 0 0 2.025 0 4.5V40.5C0 42.975 2.025 45 4.5 45H40.5C42.975 45 45 42.975 45 40.5V4.5C45 2.025 42.975 0 40.5 0ZM35.325 16.425C35.1 26.775 28.575 33.975 18.675 34.425C14.625 34.65 11.7 33.3 9 31.725C11.925 32.1751 15.75 31.0501 17.775 29.25C14.85 29.025 13.05 27.45 12.15 24.975C13.05 25.2 13.95 24.975 14.625 24.975C11.925 24.075 10.125 22.5 9.9 18.9C10.575 19.35 11.475 19.575 12.375 19.575C10.35 18.45 9 14.175 10.575 11.475C13.5 14.625 17.1 17.325 22.95 17.775C21.375 11.475 29.9251 8.1 33.3001 12.375C34.8751 12.15 36.0001 11.475 37.1251 11.025C36.6751 12.6 35.7751 13.5 34.6501 14.4C35.7751 14.175 36.9001 13.95 37.8001 13.5C37.575 14.625 36.45 15.525 35.325 16.425Z" fill="#03A9F4"/>
</svg>
