<svg width="45" height="45" viewBox="0 0 45 45" fill="none" xmlns="http://www.w3.org/2000/svg">
<path d="M40.5 0H4.5C2.025 0 0 2.025 0 4.5V40.5C0 42.975 2.025 45 4.5 45H40.5C42.975 45 45 42.975 45 40.5V4.5C45 2.025 42.975 0 40.5 0ZM13.5 38.25H6.75V18H13.5V38.25ZM10.125 14.175C7.875 14.175 6.075 12.375 6.075 10.125C6.075 7.875 7.875 6.075 10.125 6.075C12.375 6.075 14.175 7.875 14.175 10.125C14.175 12.375 12.375 14.175 10.125 14.175ZM38.25 38.25H31.5V26.325C31.5 24.5251 29.925 22.95 28.125 22.95C26.325 22.95 24.75 24.5251 24.75 26.325V38.25H18V18H24.75V20.7C25.875 18.9 28.35 17.55 30.375 17.55C34.65 17.55 38.25 21.15 38.25 25.425V38.25Z" fill="#007AB9"/>
</svg>
