<svg width="53" height="53" viewBox="0 0 53 53" fill="none" xmlns="http://www.w3.org/2000/svg">
<g clip-path="url(#clip0)">
<path d="M38.0536 33.7867C38.4187 34.0115 38.8969 33.8977 39.1218 33.5325C39.3465 33.1674 39.2329 32.6892 38.8677 32.4644L38.1969 32.0513C37.6647 31.7237 37.2484 31.2595 36.9826 30.7098C37.3858 29.9697 37.5978 29.1407 37.5978 28.2877V4.00398C37.5978 1.7962 35.8016 0 33.5938 0H13.3585C11.1513 0 9.35559 1.7962 9.35559 4.00398V18.4036C9.35559 18.8324 9.7032 19.18 10.132 19.18C10.5607 19.18 10.9083 18.8324 10.9083 18.4036V4.00398C10.9083 2.65238 12.0075 1.55273 13.3585 1.55273H33.5938C34.9454 1.55273 36.045 2.65238 36.045 4.00398V27.1451L33.6071 17.0495C33.3791 16.1052 32.7332 15.3494 31.8351 14.976C30.9355 14.602 29.9419 14.6774 29.1093 15.1832C27.4903 16.1666 26.5602 17.9502 26.6819 19.8383L27.2963 29.3615C27.354 30.2549 27.0788 31.1189 26.5199 31.8122H13.3585C12.0075 31.8122 10.9083 30.7126 10.9083 29.361V21.5089C10.9083 21.0801 10.5607 20.7325 10.132 20.7325C9.7032 20.7325 9.35559 21.0801 9.35559 21.5089V29.361C9.35559 31.5687 11.1513 33.3649 13.3585 33.3649H15.6285C15.3529 33.8367 15.2054 34.375 15.2054 34.9363C15.2054 36.6205 16.5451 37.9968 18.2147 38.0575C17.9382 38.5302 17.7901 39.0694 17.7901 39.6318C17.7901 41.3545 19.1916 42.7559 20.9142 42.7559H22.623C22.8421 44.0576 23.2845 45.3352 23.9582 46.5294L23.9828 46.573C24.4141 47.3376 24.6421 48.2057 24.6421 49.0836V52.2236C24.6421 52.6524 24.9897 53 25.4184 53C25.8472 53 26.1948 52.6524 26.1948 52.2236V49.0838C26.1948 47.9391 25.8975 46.8072 25.3352 45.8103L25.3107 45.7667C23.2065 42.0367 23.696 37.3709 26.5289 34.1565L27.5821 32.9614C28.485 31.9371 28.9337 30.623 28.8458 29.2615L28.2315 19.7383C28.1471 18.4293 28.7922 17.1924 29.9153 16.5102C30.3196 16.2647 30.802 16.2279 31.239 16.4097C31.6744 16.5908 31.9873 16.9568 32.0978 17.414L35.2383 30.4194C35.5372 31.6569 36.2988 32.7061 37.3829 33.3736L38.0536 33.7867ZM22.4687 41.2034H20.9141C20.0476 41.2034 19.3428 40.4984 19.3428 39.632C19.3428 39.2119 19.5061 38.8172 19.8021 38.5213C20.0998 38.2242 20.4948 38.0606 20.9141 38.0606H22.7947C22.5441 39.0884 22.4344 40.1461 22.4687 41.2034ZM23.2899 36.5079H18.3294C17.4629 36.5079 16.758 35.8029 16.758 34.9365C16.758 34.5164 16.9214 34.1219 17.2189 33.8251C17.5156 33.5285 17.9099 33.3652 18.3294 33.3652H25.1648C24.3639 34.3238 23.7371 35.386 23.2899 36.5079ZM42.0118 27.7668L40.642 25.869C40.3904 25.5218 39.9049 25.4445 39.5578 25.6962C39.2106 25.9478 39.1333 26.4333 39.3851 26.7804L40.7548 28.6783C42.1219 30.5638 42.4651 32.997 41.673 35.1868C41.5805 35.4423 37.3422 46.9946 37.3535 47.255V52.2237C37.3535 52.6525 37.7011 53.0001 38.1298 53.0001C38.5586 53.0001 38.9062 52.6525 38.9062 52.2237V47.3912L43.133 35.7153C44.1004 33.0407 43.6813 30.0694 42.0118 27.7668ZM23.4763 22.2146C22.1291 22.2146 21.0331 23.3106 21.0331 24.6577C21.0331 26.0049 22.1291 27.1009 23.4763 27.1009C24.8234 27.1009 25.9194 26.0049 25.9194 24.6577C25.9194 23.3106 24.8234 22.2146 23.4763 22.2146ZM23.4763 25.5482C22.9853 25.5482 22.5858 25.1487 22.5858 24.6577C22.5858 24.1668 22.9853 23.7673 23.4763 23.7673C23.9672 23.7673 24.3667 24.1668 24.3667 24.6577C24.3667 25.1487 23.9672 25.5482 23.4763 25.5482ZM23.4763 6.26414C21.8222 6.26414 20.4979 7.72682 20.6678 9.36433L21.6272 19.0576C21.7217 20.0127 22.5167 20.7328 23.4763 20.7328C24.4358 20.7328 25.2308 20.0127 25.3254 19.0576L26.2847 9.36433C26.4555 7.72599 25.1092 6.26414 23.4763 6.26414ZM24.7396 9.21144L23.7802 18.9047C23.7647 19.0618 23.6339 19.1801 23.4762 19.1801C23.3184 19.1801 23.1878 19.0617 23.1721 18.9047L22.2127 9.21144C22.1352 8.47482 22.7366 7.81688 23.4761 7.81688C24.2125 7.81688 24.8175 8.47565 24.7396 9.21144Z" fill="#076633"/>
</g>
<defs>
<clipPath id="clip0">
<rect width="53" height="53" fill="white"/>
</clipPath>
</defs>
</svg>
