<svg width="20" height="19" viewBox="0 0 20 19" fill="none" xmlns="http://www.w3.org/2000/svg">
<g clip-path="url(#clip0)">
<path d="M17.6652 11.9364C17.4038 11.9364 17.192 12.1483 17.192 12.4096V16.6111C17.191 17.3949 16.5561 18.03 15.7724 18.0307H2.4949C1.71116 18.03 1.07623 17.3949 1.0753 16.6111V4.28005C1.07623 3.4965 1.71116 2.86138 2.4949 2.86046H6.69638C6.95775 2.86046 7.16958 2.64863 7.16958 2.38726C7.16958 2.12608 6.95775 1.91406 6.69638 1.91406H2.4949C1.1888 1.91554 0.130385 2.97395 0.128906 4.28005V16.6113C0.130385 17.9174 1.1888 18.9758 2.4949 18.9773H15.7724C17.0785 18.9758 18.1369 17.9174 18.1384 16.6113V12.4096C18.1384 12.1483 17.9265 11.9364 17.6652 11.9364Z" fill="white"/>
<path d="M17.951 0.695973C17.1194 -0.135637 15.7712 -0.135637 14.9396 0.695973L6.49741 9.13813C6.43956 9.19599 6.39778 9.2677 6.37597 9.34645L5.2658 13.3544C5.22015 13.5187 5.26654 13.6947 5.38706 13.8154C5.50776 13.9359 5.68373 13.9823 5.84806 13.9368L9.85601 12.8265C9.93475 12.8047 10.0065 12.7629 10.0643 12.705L18.5063 4.26271C19.3366 3.43054 19.3366 2.08341 18.5063 1.25124L17.951 0.695973ZM7.52847 9.44571L14.4377 2.53627L16.666 4.76456L9.75656 11.674L7.52847 9.44571ZM7.08336 10.3389L8.86359 12.1193L6.40111 12.8015L7.08336 10.3389ZM17.8372 3.59357L17.3353 4.09542L15.1068 1.86695L15.6089 1.36511C16.0708 0.903182 16.8198 0.903182 17.2817 1.36511L17.8372 1.92037C18.2983 2.38285 18.2983 3.13128 17.8372 3.59357Z" fill="white"/>
</g>
<defs>
<clipPath id="clip0">
<rect width="19" height="19" fill="white" transform="translate(0.128906)"/>
</clipPath>
</defs>
</svg>
