<svg width="24" height="24" viewBox="0 0 24 24" fill="none" xmlns="http://www.w3.org/2000/svg">
<g clip-path="url(#clip0)">
<path d="M11.9978 16.955C15.5255 16.955 18.3853 14.0952 18.3853 10.5675C18.3853 7.03982 15.5255 4.18005 11.9978 4.18005C8.47012 4.18005 5.61035 7.03982 5.61035 10.5675C5.61035 14.0952 8.47012 16.955 11.9978 16.955Z" fill="#E94E1B"/>
<path d="M19.5048 3.10887C17.5 1.10409 14.8345 0 11.9992 0C9.16401 0 6.49846 1.10409 4.49368 3.10887C2.48886 5.11374 1.38477 7.77924 1.38477 10.6145C1.38477 15.6164 4.88163 19.9347 9.73954 20.987L11.9992 24L14.259 20.987C19.1169 19.9347 22.6137 15.6164 22.6137 10.6145C22.6137 7.77924 21.5096 5.11374 19.5048 3.10887ZM11.9992 2.77104C16.2983 2.77104 19.7957 6.26856 19.7957 10.5675C19.7957 14.8665 16.2983 18.364 11.9992 18.364C7.70024 18.364 4.20277 14.8665 4.20277 10.5675C4.20277 6.26856 7.70024 2.77104 11.9992 2.77104Z" fill="#E94E1B"/>
</g>
<defs>
<clipPath id="clip0">
<rect width="24" height="24" fill="white"/>
</clipPath>
</defs>
</svg>
