<svg width="22" height="22" viewBox="0 0 22 22" fill="none" xmlns="http://www.w3.org/2000/svg">
<g clip-path="url(#clip0)">
<path d="M6.81098 7.56853C6.83139 8.65822 7.27232 9.68465 8.0526 10.4587C8.83283 11.2327 9.86275 11.6655 10.9526 11.6775C11.4607 11.6831 11.9607 11.5982 12.4343 11.4254C12.6015 11.3645 12.6876 11.1795 12.6267 11.0123C12.5658 10.8451 12.3808 10.7589 12.2136 10.8199C11.8129 10.966 11.3922 11.0382 10.9597 11.033C9.06288 11.0122 7.49085 9.45263 7.45527 7.55388C7.42953 6.58906 7.82126 5.64022 8.52987 4.95064C9.23874 4.2609 10.1983 3.89559 11.1648 3.94737C13.0123 4.03107 14.4962 5.54595 14.543 7.39615C14.554 7.82745 14.4886 8.25029 14.3487 8.6528C14.2557 8.9201 14.0008 9.09966 13.7141 9.09966C13.7141 9.09966 13.714 9.09966 13.714 9.09966C13.3426 9.09966 13.0404 8.79747 13.0404 8.42598V5.76972C13.0404 5.59171 12.8962 5.44747 12.7182 5.44747C12.5401 5.44747 12.3959 5.59171 12.3959 5.76972V6.002C12.0305 5.65852 11.5393 5.44747 10.9995 5.44747C9.87413 5.44747 8.95855 6.36305 8.95855 7.4884C8.95855 8.61375 9.87413 9.52933 10.9995 9.52933C11.5822 9.52933 12.1083 9.28339 12.4806 8.89037C12.6688 9.38874 13.1506 9.74421 13.714 9.74421H13.7141C14.2748 9.74421 14.7745 9.39063 14.9574 8.86446C15.123 8.38843 15.2003 7.88894 15.1874 7.37978C15.132 5.19298 13.3779 3.4025 11.1968 3.30368C10.0539 3.24189 8.91786 3.67384 8.08048 4.48875C7.24323 5.3034 6.78056 6.4269 6.81098 7.56853V7.56853ZM10.9995 8.88483C10.2295 8.88483 9.6031 8.25841 9.6031 7.4884C9.6031 6.71839 10.2295 6.09197 10.9995 6.09197C11.7695 6.09197 12.3959 6.71839 12.3959 7.4884C12.3959 8.25841 11.7695 8.88483 10.9995 8.88483Z" fill="#E94E1B"/>
<path d="M21.8753 8.55598L12.8402 1.49617C11.7951 0.679674 10.332 0.675334 9.28214 1.48578L0.126147 8.55426C0.0476034 8.61437 -0.000132804 8.71101 3.90633e-05 8.80991V11.6457C3.90633e-05 11.8237 0.144279 11.968 0.322291 11.968C0.500303 11.968 0.644543 11.8237 0.644543 11.6457V9.35903L8.74819 13.8858L0.644543 20.1418V13.1496C0.644543 12.9716 0.500303 12.8273 0.322291 12.8273C0.144279 12.8273 3.90633e-05 12.9716 3.90633e-05 13.1496V20.7977C-0.00279675 20.9707 0.149177 21.1229 0.322291 21.1199H21.6768C21.8488 21.1223 22.0027 20.9705 21.9991 20.7977V8.84798C22.0068 8.73739 21.9646 8.6243 21.8753 8.55598V8.55598ZM1.26705 20.4754L9.67601 13.9837C10.4926 13.3534 11.6305 13.3566 12.4433 13.9918L12.5985 14.1131C12.5987 14.1131 16.6384 17.2697 16.6387 17.2699C16.779 17.3795 16.9815 17.3547 17.0911 17.2144C17.2006 17.0741 17.1758 16.8716 17.0356 16.7621L13.3735 13.9007L15.3549 12.7844C15.5099 12.6971 15.5648 12.5006 15.4774 12.3455C15.3901 12.1904 15.1937 12.1357 15.0385 12.2229L12.823 13.4711C11.7862 12.6731 10.3461 12.6678 9.30358 13.4577L0.905695 8.7666L9.67606 1.99588C10.4926 1.36555 11.6306 1.36886 12.4434 2.004L21.1297 8.79122L16.3113 11.5057C16.1563 11.5931 16.1014 11.7896 16.1888 11.9447C16.2766 12.1012 16.4755 12.1538 16.6277 12.0673L21.3546 9.40423V20.1369L18.1867 17.6615C18.0465 17.552 17.844 17.5768 17.7344 17.717C17.6248 17.8573 17.6496 18.0598 17.7899 18.1694L20.7411 20.4754H1.26705V20.4754Z" fill="#E94E1B"/>
</g>
<defs>
<clipPath id="clip0">
<rect width="22" height="22" fill="white"/>
</clipPath>
</defs>
</svg>
