<svg width="15" height="15" viewBox="0 0 15 15" fill="none" xmlns="http://www.w3.org/2000/svg">
<path d="M11.4857 15C11.2856 14.9998 11.0902 14.9369 10.9244 14.8196L7.54753 12.446C7.5309 12.4339 7.51116 12.4275 7.49095 12.4275C7.47073 12.4275 7.451 12.4339 7.43436 12.446L4.05752 14.8196C3.88795 14.9383 3.68796 15.0001 3.48408 14.9969C3.28021 14.9936 3.08211 14.9253 2.9161 14.8012C2.75008 14.6771 2.624 14.5029 2.5546 14.3018C2.4852 14.1008 2.47576 13.8823 2.52754 13.6755L3.63655 9.57393C3.6418 9.55331 3.64116 9.53153 3.63472 9.51128C3.62829 9.49103 3.61633 9.4732 3.60034 9.46L0.404563 6.82532C0.236327 6.69388 0.111533 6.51052 0.0476795 6.30095C-0.0161741 6.09138 -0.0158852 5.8661 0.0485057 5.65671C0.112897 5.44732 0.23816 5.26432 0.406733 5.13335C0.575306 5.00239 0.778734 4.93004 0.988494 4.92645L5.06243 4.76505C5.08246 4.7636 5.10166 4.7561 5.11773 4.74347C5.13379 4.73083 5.14602 4.7136 5.15296 4.69384L6.5562 0.691972C6.62694 0.489097 6.7554 0.313916 6.92422 0.190147C7.09303 0.066378 7.29403 0 7.5 0C7.70597 0 7.90697 0.066378 8.07578 0.190147C8.2446 0.313916 8.37306 0.489097 8.44379 0.691972L9.84704 4.69384C9.85398 4.7136 9.86621 4.73083 9.88227 4.74347C9.89834 4.7561 9.91754 4.7636 9.93757 4.76505L14.0115 4.92645C14.2213 4.93004 14.4247 5.00239 14.5933 5.13335C14.7618 5.26432 14.8871 5.44732 14.9515 5.65671C15.0159 5.8661 15.0162 6.09138 14.9523 6.30095C14.8885 6.51052 14.7637 6.69388 14.5954 6.82532L11.3997 9.46C11.3832 9.47278 11.3709 9.49057 11.3644 9.51096C11.3579 9.53135 11.3576 9.55334 11.3634 9.57393L12.4725 13.6755C12.5114 13.8328 12.5153 13.9974 12.4837 14.1566C12.4522 14.3157 12.3862 14.4651 12.2908 14.5932C12.1954 14.7212 12.0731 14.8246 11.9335 14.8951C11.7939 14.9656 11.6406 15.0015 11.4857 15V15ZM7.49321 11.4775C7.69366 11.484 7.88764 11.5534 8.04998 11.6769L11.4268 14.0505C11.4439 14.0642 11.4648 14.0716 11.4863 14.0718C11.5078 14.072 11.5288 14.0649 11.5461 14.0515C11.5634 14.0382 11.5761 14.0193 11.5824 13.9977C11.5886 13.9761 11.588 13.953 11.5807 13.9318L10.4717 9.83028C10.4171 9.62908 10.4212 9.41536 10.4833 9.21657C10.5454 9.01779 10.6627 8.84301 10.8203 8.71469L14.016 6.08001C14.0335 6.06717 14.0465 6.04881 14.0533 6.02761C14.06 6.00642 14.0601 5.98352 14.0535 5.96227C14.0469 5.94102 14.034 5.92255 14.0167 5.90956C13.9993 5.89658 13.9785 5.88977 13.9572 5.89013L9.88325 5.72872C9.68377 5.72057 9.49113 5.65029 9.32989 5.52685C9.16865 5.40341 9.04612 5.2324 8.97793 5.03564L7.57469 1.03377C7.56836 1.01252 7.55573 0.993948 7.53863 0.98076C7.52153 0.967573 7.50086 0.96046 7.47963 0.96046C7.4584 0.96046 7.43773 0.967573 7.42063 0.98076C7.40353 0.993948 7.3909 1.01252 7.38457 1.03377L5.99491 5.03089C5.92672 5.22765 5.80419 5.39866 5.64295 5.5221C5.48171 5.64554 5.28907 5.71582 5.08959 5.72398L1.01565 5.88538C0.994352 5.88502 0.973503 5.89183 0.956167 5.90482C0.938831 5.9178 0.925922 5.93628 0.919338 5.95752C0.912753 5.97877 0.912839 6.00167 0.919584 6.02287C0.926328 6.04406 0.939375 6.06242 0.956808 6.07527L4.15711 8.71469C4.31416 8.84343 4.43115 9.01823 4.49321 9.21688C4.55528 9.41553 4.55961 9.62904 4.50566 9.83028L3.40117 13.9318C3.39458 13.9524 3.39455 13.9746 3.40108 13.9952C3.40761 14.0157 3.42036 14.0335 3.43738 14.0458C3.45378 14.0605 3.47465 14.0686 3.49623 14.0686C3.51781 14.0686 3.53867 14.0605 3.55507 14.0458L6.93191 11.6722C7.09694 11.5574 7.29064 11.4963 7.48868 11.4965L7.49321 11.4775Z" fill="white"/>
</svg>
