<svg width="18" height="18" viewBox="0 0 18 18" fill="none" xmlns="http://www.w3.org/2000/svg">
<g clip-path="url(#clip0)">
<path d="M14.997 6.61646C14.1651 3.30237 10.8041 1.29017 7.49003 2.12209C4.90015 2.77223 3.0196 5.01063 2.82584 7.67381C0.98691 7.97707 -0.258012 9.71364 0.0452477 11.5526C0.314831 13.1874 1.7314 14.3847 3.38828 14.3781H6.20047V13.2532H3.38828C2.14578 13.2532 1.13852 12.2459 1.13852 11.0034C1.13852 9.76095 2.14578 8.7537 3.38828 8.7537C3.69892 8.7537 3.95071 8.5019 3.95071 8.19126C3.9479 5.39562 6.21196 3.12703 9.0076 3.12425C11.4276 3.12182 13.5109 4.83269 13.979 7.20699C14.0252 7.44406 14.2176 7.62516 14.4571 7.65694C15.9947 7.8759 17.0637 9.29989 16.8447 10.8375C16.6481 12.2182 15.4692 13.2462 14.0746 13.2532H11.8249V14.3781H14.0746C16.249 14.3715 18.0063 12.6035 17.9997 10.4291C17.9942 8.6191 16.7553 7.04599 14.997 6.61646Z" fill="white"/>
<path d="M8.61328 8.91692L6.36353 11.1667L7.15656 11.9597L8.45017 10.6717V16.0655H9.57505V10.6717L10.863 11.9597L11.6561 11.1667L9.40632 8.91692C9.18693 8.69884 8.83266 8.69884 8.61328 8.91692Z" fill="white"/>
</g>
<defs>
<clipPath id="clip0">
<rect width="18" height="18" fill="white"/>
</clipPath>
</defs>
</svg>
