<svg width="24" height="24" viewBox="0 0 24 24" fill="none" xmlns="http://www.w3.org/2000/svg">
<g clip-path="url(#clip0)">
<path d="M19.9963 8.82277C18.8871 4.40397 14.4058 1.72104 9.98704 2.83027C6.53385 3.69712 4.02646 6.68166 3.76811 10.2326C1.31621 10.6369 -0.343691 12.9523 0.0606558 15.4042C0.420101 17.584 2.30886 19.1804 4.51803 19.1716H8.26762V17.6718H4.51803C2.86136 17.6718 1.51836 16.3287 1.51836 14.6721C1.51836 13.0154 2.86136 11.6724 4.51803 11.6724C4.93222 11.6724 5.26794 11.3367 5.26794 10.9225C5.2642 7.19498 8.28294 4.17018 12.0105 4.16648C15.2372 4.16325 18.0148 6.4444 18.639 9.61013C18.7006 9.92622 18.9571 10.1677 19.2764 10.2101C21.3266 10.502 22.7519 12.4007 22.46 14.4508C22.1978 16.2918 20.626 17.6625 18.7665 17.6718H15.7668V19.1716H18.7665C21.6656 19.1628 24.0088 16.8055 24 13.9063C23.9926 11.4929 22.3408 9.39547 19.9963 8.82277Z" fill="white"/>
<path d="M11.4845 11.89L8.48486 14.8896L9.54225 15.947L11.2671 14.2297V21.4214H12.7669V14.2297L14.4842 15.947L15.5416 14.8896L12.5419 11.89C12.2494 11.5992 11.7771 11.5992 11.4845 11.89Z" fill="white"/>
</g>
<defs>
<clipPath id="clip0">
<rect width="24" height="24" fill="white"/>
</clipPath>
</defs>
</svg>
