<svg width="30" height="30" viewBox="0 0 30 30" fill="none" xmlns="http://www.w3.org/2000/svg">
<g clip-path="url(#clip0)">
<path d="M29.9218 11.5087C29.7254 10.9012 29.1866 10.4698 28.5492 10.4123L19.8903 9.62609L16.4664 1.61204C16.2139 1.02471 15.639 0.644531 15.0002 0.644531C14.3613 0.644531 13.7864 1.02471 13.5339 1.61341L10.11 9.62609L1.44977 10.4123C0.813463 10.4711 0.276035 10.9012 0.0785047 11.5087C-0.119025 12.1162 0.0633981 12.7824 0.544749 13.2025L7.08979 18.9425L5.15981 27.4441C5.01859 28.0692 5.26121 28.7153 5.77987 29.0902C6.05865 29.2917 6.38482 29.3942 6.71373 29.3942C6.99732 29.3942 7.27863 29.3178 7.53109 29.1667L15.0002 24.7027L22.4665 29.1667C23.0128 29.4954 23.7015 29.4654 24.2191 29.0902C24.738 28.7142 24.9803 28.0678 24.8391 27.4441L22.9091 18.9425L29.4542 13.2036C29.9355 12.7824 30.1193 12.1173 29.9218 11.5087Z" fill="#FFC107"/>
</g>
<defs>
<clipPath id="clip0">
<rect width="30" height="30" fill="white"/>
</clipPath>
</defs>
</svg>
