<svg width="20" height="19" viewBox="0 0 20 19" fill="none" xmlns="http://www.w3.org/2000/svg">
<g clip-path="url(#clip0)">
<path d="M11.2049 3.30917C10.9864 3.30917 10.8091 3.13183 10.8091 2.91333V1.58333C10.8091 1.14713 10.4536 0.791667 10.0174 0.791667C9.58121 0.791667 9.22575 1.14713 9.22575 1.58333V2.91333C9.22575 3.13183 9.04841 3.30917 8.82992 3.30917C8.61142 3.30917 8.43408 3.13263 8.43408 2.91333V1.58333C8.43408 0.710125 9.14421 0 10.0174 0C10.8906 0 11.6007 0.710125 11.6007 1.58333V2.91333C11.6007 3.13263 11.4234 3.30917 11.2049 3.30917Z" fill="white"/>
<path d="M10.0174 19.0007C8.4895 19.0007 7.24658 17.7577 7.24658 16.2298C7.24658 16.0113 7.42392 15.834 7.64242 15.834C7.86092 15.834 8.03825 16.0113 8.03825 16.2298C8.03825 17.3207 8.9265 18.209 10.0174 18.209C11.1083 18.209 11.9966 17.3207 11.9966 16.2298C11.9966 16.0113 12.1739 15.834 12.3924 15.834C12.6109 15.834 12.7882 16.0113 12.7882 16.2298C12.7882 17.7577 11.5453 19.0007 10.0174 19.0007Z" fill="white"/>
<path d="M16.7464 16.625H3.28809C2.63338 16.625 2.10059 16.0922 2.10059 15.4375C2.10059 15.09 2.25179 14.7614 2.51621 14.535C3.76388 13.4805 4.47559 11.9463 4.47559 10.3218V7.91667C4.47559 4.86083 6.96142 2.375 10.0173 2.375C13.0731 2.375 15.5589 4.86083 15.5589 7.91667V10.3218C15.5589 11.947 16.2706 13.4805 17.512 14.5295C17.7827 14.7614 17.9339 15.09 17.9339 15.4375C17.9339 16.0922 17.4019 16.625 16.7464 16.625ZM10.0173 3.16667C7.39763 3.16667 5.26725 5.29704 5.26725 7.91667V10.3218C5.26725 12.1806 4.45342 13.9341 3.03396 15.1343C2.94292 15.2119 2.89225 15.3219 2.89225 15.4375C2.89225 15.656 3.06959 15.8333 3.28809 15.8333H16.7464C16.9649 15.8333 17.1423 15.656 17.1423 15.4375C17.1423 15.3219 17.0916 15.2119 17.0037 15.1367C15.5819 13.9341 14.7673 12.1798 14.7673 10.3218V7.91667C14.7673 5.29704 12.6369 3.16667 10.0173 3.16667Z" fill="white"/>
</g>
<defs>
<clipPath id="clip0">
<rect width="19" height="19" fill="white" transform="translate(0.51709)"/>
</clipPath>
</defs>
</svg>
