<svg width="19" height="19" viewBox="0 0 19 19" fill="none" xmlns="http://www.w3.org/2000/svg">
<path d="M14.5485 18.9999C14.2951 18.9997 14.0476 18.9201 13.8375 18.7714L9.5602 15.7649C9.53914 15.7496 9.51414 15.7415 9.48853 15.7415C9.46293 15.7415 9.43793 15.7496 9.41686 15.7649L5.13953 18.7714C4.92474 18.9218 4.67141 19.0002 4.41317 18.996C4.15494 18.9919 3.90401 18.9054 3.69373 18.7482C3.48344 18.5909 3.32374 18.3703 3.23583 18.1156C3.14792 17.861 3.13596 17.5843 3.20155 17.3223L4.6063 12.127C4.61294 12.1009 4.61214 12.0733 4.60398 12.0476C4.59583 12.022 4.58069 11.9994 4.56043 11.9827L0.512447 8.6454C0.299348 8.47892 0.141275 8.24666 0.060394 7.98121C-0.0204872 7.71575 -0.0201212 7.4304 0.0614405 7.16517C0.143002 6.89994 0.30167 6.66813 0.515195 6.50225C0.728721 6.33636 0.986396 6.24472 1.25209 6.24017L6.41241 6.03573C6.43778 6.03389 6.46211 6.0244 6.48245 6.00839C6.5028 5.99239 6.5183 5.97056 6.52708 5.94553L8.30453 0.876498C8.39412 0.619523 8.55685 0.397627 8.77067 0.240853C8.9845 0.0840788 9.2391 0 9.5 0C9.7609 0 10.0155 0.0840788 10.2293 0.240853C10.4432 0.397627 10.6059 0.619523 10.6955 0.876498L12.4729 5.94553C12.4817 5.97056 12.4972 5.99239 12.5175 6.00839C12.5379 6.0244 12.5622 6.03389 12.5876 6.03573L17.7479 6.24017C18.0136 6.24472 18.2713 6.33636 18.4848 6.50225C18.6983 6.66813 18.857 6.89994 18.9386 7.16517C19.0201 7.4304 19.0205 7.71575 18.9396 7.98121C18.8587 8.24666 18.7007 8.47892 18.4876 8.6454L14.4396 11.9827C14.4187 11.9988 14.4031 12.0214 14.3949 12.0472C14.3867 12.073 14.3863 12.1009 14.3937 12.127L15.7985 17.3223C15.8478 17.5216 15.8527 17.7301 15.8128 17.9316C15.7728 18.1332 15.6892 18.3225 15.5684 18.4847C15.4475 18.6469 15.2926 18.7778 15.1158 18.8671C14.9389 18.9565 14.7448 19.0019 14.5485 18.9999ZM9.4914 14.5382C9.74531 14.5464 9.99102 14.6344 10.1966 14.7908L14.474 17.7973C14.4957 17.8146 14.5221 17.8241 14.5493 17.8243C14.5765 17.8245 14.6031 17.8155 14.625 17.7986C14.647 17.7817 14.6631 17.7578 14.671 17.7304C14.6789 17.7031 14.6782 17.6738 14.6689 17.647L13.2642 12.4517C13.195 12.1968 13.2001 11.9261 13.2788 11.6743C13.3575 11.4225 13.5061 11.2012 13.7057 11.0386L17.7536 7.70135C17.7757 7.68508 17.7923 7.66182 17.8008 7.63498C17.8093 7.60813 17.8094 7.57912 17.8011 7.55221C17.7928 7.52529 17.7764 7.5019 17.7545 7.48545C17.7325 7.469 17.7061 7.46037 17.6791 7.46083L12.5188 7.25638C12.2661 7.24605 12.0221 7.15703 11.8179 7.00068C11.6136 6.84432 11.4584 6.62771 11.372 6.37847L9.59461 1.30944C9.58659 1.28253 9.57059 1.259 9.54893 1.2423C9.52727 1.22559 9.50109 1.21658 9.4742 1.21658C9.44731 1.21658 9.42113 1.22559 9.39947 1.2423C9.37781 1.259 9.36181 1.28253 9.35379 1.30944L7.59355 6.37246C7.50718 6.6217 7.35197 6.8383 7.14774 6.99466C6.9435 7.15102 6.69949 7.24004 6.44681 7.25037L1.28649 7.45481C1.25951 7.45436 1.2331 7.46299 1.21114 7.47943C1.18919 7.49588 1.17284 7.51928 1.16449 7.5462C1.15615 7.57311 1.15626 7.60212 1.16481 7.62896C1.17335 7.65581 1.18987 7.67907 1.21196 7.69534L5.26567 11.0386C5.4646 11.2017 5.61279 11.4231 5.69141 11.6747C5.77002 11.9263 5.77551 12.1968 5.70717 12.4517L4.30815 17.647C4.2998 17.673 4.29976 17.7012 4.30804 17.7272C4.31631 17.7532 4.33245 17.7757 4.35402 17.7913C4.37479 17.8099 4.40122 17.8202 4.42855 17.8202C4.45589 17.8202 4.48232 17.8099 4.50309 17.7913L8.78042 14.7848C8.98946 14.6393 9.23482 14.5619 9.48567 14.5623L9.4914 14.5382Z" fill="white"/>
</svg>
