<svg width="49" height="49" viewBox="0 0 49 49" fill="none" xmlns="http://www.w3.org/2000/svg">
<g clip-path="url(#clip0)">
<path d="M46.9359 21.9971C46.8571 18.1783 45.801 14.4357 43.876 11.148C45.4423 3.65527 37.5198 -2.43759 30.6967 0.969519C24.2647 -0.948191 16.7866 0.0715582 10.8877 4.63828C10.1394 5.21211 11.0436 6.32696 11.7609 5.77714C13.5725 4.38811 15.5795 3.31124 17.7261 2.57621C19.9641 1.80989 22.3078 1.43247 24.6939 1.45275C26.1857 1.46576 27.6682 1.63663 29.1131 1.96114C28.5494 2.39864 28.0374 2.89957 27.5877 3.45312C16.4259 1.54622 5.80076 10.1775 5.29151 21.3922C4.70304 21.3635 4.09659 21.4045 3.52764 21.5597C3.72577 16.8033 5.53901 12.1937 8.57386 8.79362C9.1917 8.10155 8.12105 7.14599 7.50331 7.83807C4.09314 11.6586 2.12186 16.8946 2.07527 22.2363C0.827726 23.0986 0.00878906 24.5387 0.00878906 26.1665V33.1C0.00878906 36.1644 2.6181 37.9454 5.44515 37.8742C6.44548 40.7646 10.6624 40.1367 10.7342 37.0353V21.9848C10.7662 20.0683 8.68158 18.7061 6.94364 19.4982C8.40366 10.3357 17.2402 3.53827 26.6904 4.775C24.662 8.23797 25.3428 13.1022 28.2803 15.8936V17.8419C28.3761 18.4189 28.7083 18.6392 29.2771 18.5029L31.0236 17.765C34.3181 19.3085 38.6104 18.5202 41.1266 16.0531C41.5596 17.1719 41.8759 18.3256 42.0734 19.5053C40.3339 18.7006 38.2346 20.0584 38.2667 21.9847V37.0352C38.2461 39.076 40.5228 40.4128 42.2886 39.4075C42.285 40.0415 42.2734 40.6754 42.2485 41.303C42.0777 43.3587 40.4926 45.0848 38.4711 45.4181C37.8288 45.4813 37.0962 45.5057 36.2004 45.4929C35.8792 44.314 34.7992 43.4447 33.5199 43.4447H29.7098C26.0258 43.5968 26.025 48.8476 29.7098 49H33.5197C34.8075 49 35.8934 48.1191 36.2065 46.9282C37.0161 46.9391 37.8733 46.9675 38.6773 46.8384C41.3584 46.4094 43.5001 44.1238 43.7177 41.4036C43.7184 41.394 43.7173 41.3846 43.7177 41.3751C43.7676 40.1265 43.7299 38.8655 43.7177 37.6279C46.491 37.7623 48.992 35.7411 48.992 32.8536V25.9201C48.992 24.2968 48.1776 22.8601 46.9359 21.9971V21.9971ZM1.44384 33.1V26.1665C1.44384 24.0747 3.28482 22.7137 5.26175 22.8273V36.4392C3.28377 36.5488 1.44384 35.1981 1.44384 33.1ZM8.02328 20.709C8.72684 20.709 9.29913 21.2814 9.29913 21.9848V37.0353C9.22882 38.7284 6.81707 38.7269 6.74742 37.0353V21.9848C6.74742 21.2813 7.31981 20.709 8.02328 20.709ZM33.5197 47.565H29.7098C28.9695 47.565 28.3672 46.9627 28.3672 46.2223C28.3672 45.4819 28.9694 44.8797 29.7098 44.8797H33.5197C35.2998 44.9531 35.3013 47.4911 33.5197 47.565ZM45.4743 21.3137C44.9047 21.1581 44.2976 21.1173 43.7086 21.1459C43.5615 18.9736 43.0526 16.8658 42.1923 14.8684C42.6181 14.3049 42.9812 13.6916 43.271 13.0387C44.564 15.6095 45.3164 18.4304 45.4743 21.3137ZM34.7892 17.1268C33.5843 17.1268 32.4282 16.8604 31.353 16.3353C31.1561 16.2439 30.9581 16.2386 30.7588 16.319L29.7154 16.7599V15.5863C29.7154 15.3856 29.6314 15.1941 29.4836 15.0582C24.2591 10.2636 27.6904 1.44806 34.7893 1.45198C45.1883 1.88221 45.1859 16.6977 34.7892 17.1268V17.1268ZM47.5569 32.8536C47.5569 34.9681 45.6901 36.3131 43.701 36.1928C43.692 35.4217 43.6869 34.6506 43.6884 33.8795C43.6884 32.9518 42.2533 32.9518 42.2533 33.8795V37.0352C42.2533 37.7388 41.6809 38.3111 40.9775 38.3111C40.274 38.3111 39.7016 37.7388 39.7016 37.0352V21.9848C39.7697 20.2963 42.1818 20.2886 42.2533 21.9848V30.0598C42.2533 30.9875 43.6884 30.9875 43.6884 30.0598V22.581C45.6823 22.4681 47.5569 23.7875 47.5569 25.9201V32.8536Z" fill="#E94E1B"/>
<path d="M31.0286 40.4215C31.5973 40.5578 31.9296 40.3376 32.0254 39.7605V37.4177C38.8994 30.7342 34.1031 18.9232 24.5007 18.9356C18.5598 18.9355 13.7263 23.7681 13.7263 29.7081C13.6352 37.4149 21.9456 42.7807 28.9252 39.5329L31.0286 40.4215ZM28.5948 38.1027C22.5273 41.1581 15.0781 36.5089 15.1615 29.708C15.1614 24.5593 19.3511 20.3705 24.5008 20.3705C32.9593 20.3667 37.0465 30.8697 30.822 36.5812C30.6743 36.717 30.5903 36.9085 30.5903 37.1093V38.6784L29.189 38.0864C28.998 38.0057 28.7812 38.0116 28.5948 38.1027V38.1027Z" fill="#E94E1B"/>
<path d="M22.5816 26.4009H26.42C27.3477 26.4009 27.3477 24.9658 26.42 24.9658H22.5816C21.6538 24.9658 21.6538 26.4009 22.5816 26.4009Z" fill="#E94E1B"/>
<path d="M26.4199 33.0146H22.5815C21.6538 33.0146 21.6538 34.4497 22.5815 34.4497H26.4199C27.3476 34.4497 27.3476 33.0146 26.4199 33.0146Z" fill="#E94E1B"/>
<path d="M28.4732 28.9902H20.5278C19.6001 28.9902 19.6001 30.4253 20.5278 30.4253H28.4732C29.4009 30.4253 29.4009 28.9902 28.4732 28.9902Z" fill="#E94E1B"/>
<path d="M34.8524 3.81305C33.1575 3.78062 31.7246 5.18209 31.7246 6.87727C31.7246 7.80499 33.1597 7.80499 33.1597 6.87727C33.1597 5.99395 33.9373 5.22849 34.8235 5.24782C35.673 5.26494 36.373 5.94219 36.417 6.78964C36.4649 7.71094 35.7133 8.50711 34.7895 8.50711C34.3932 8.50711 34.072 8.82837 34.072 9.22464V11.6792C34.072 12.0754 34.3932 12.3967 34.7895 12.3967C35.1858 12.3967 35.507 12.0754 35.507 11.6792V9.85606C36.9244 9.51232 37.9258 8.17265 37.8501 6.71521C37.7673 5.1201 36.4505 3.84529 34.8524 3.81305Z" fill="#E94E1B"/>
<path d="M34.7888 13.4258C33.8654 13.4258 33.8639 14.8608 34.7888 14.8608C35.7121 14.8608 35.7137 13.4258 34.7888 13.4258Z" fill="#E94E1B"/>
</g>
<defs>
<clipPath id="clip0">
<rect width="49" height="49" fill="white"/>
</clipPath>
</defs>
</svg>
