<svg width="57" height="57" viewBox="0 0 57 57" fill="none" xmlns="http://www.w3.org/2000/svg">
<g clip-path="url(#clip0)" filter="url(#filter0_d)">
<path d="M50.9357 21.9971C50.8568 18.1783 49.8007 14.4357 47.8757 11.148C49.4421 3.65527 41.5196 -2.43759 34.6965 0.969519C28.2645 -0.948191 20.7863 0.0715582 14.8875 4.63828C14.1392 5.21211 15.0433 6.32696 15.7607 5.77714C17.5723 4.3881 19.5793 3.31124 21.7258 2.57621C23.9638 1.80989 26.3076 1.43247 28.6937 1.45275C30.1855 1.46576 31.668 1.63663 33.1129 1.96114C32.5492 2.39864 32.0371 2.89957 31.5875 3.45312C20.4257 1.54622 9.80052 10.1775 9.29126 21.3922C8.7028 21.3635 8.09634 21.4045 7.52739 21.5597C7.72552 16.8033 9.53876 12.1937 12.5736 8.79362C13.1915 8.10155 12.1208 7.14599 11.5031 7.83807C8.0929 11.6586 6.12161 16.8946 6.07502 22.2363C4.82748 23.0986 4.00854 24.5387 4.00854 26.1665V33.1C4.00854 36.1644 6.61785 37.9454 9.44491 37.8742C10.4452 40.7646 14.6622 40.1367 14.7339 37.0353V21.9848C14.766 20.0683 12.6813 18.7061 10.9434 19.4982C12.4034 10.3357 21.24 3.53827 30.6901 4.775C28.6617 8.23797 29.3426 13.1022 32.2801 15.8936V17.8419C32.3758 18.4189 32.7081 18.6392 33.2768 18.5029L35.0234 17.765C38.3179 19.3085 42.6101 18.5202 45.1264 16.0531C45.5594 17.1719 45.8757 18.3256 46.0731 19.5053C44.3336 18.7006 42.2344 20.0584 42.2665 21.9847V37.0352C42.2458 39.076 44.5226 40.4128 46.2884 39.4075C46.2847 40.0415 46.2732 40.6754 46.2483 41.303C46.0774 43.3587 44.4924 45.0848 42.4709 45.4181C41.8285 45.4813 41.096 45.5057 40.2001 45.4929C39.879 44.314 38.7989 43.4447 37.5196 43.4447H33.7096C30.0256 43.5968 30.0247 48.8476 33.7096 49H37.5194C38.8073 49 39.8931 48.1191 40.2062 46.9282C41.0159 46.9391 41.8731 46.9675 42.677 46.8384C45.3582 46.4095 47.4999 44.1238 47.7174 41.4036C47.7182 41.394 47.717 41.3846 47.7174 41.3751C47.7673 40.1265 47.7297 38.8655 47.7174 37.6279C50.4908 37.7623 52.9917 35.7411 52.9917 32.8536V25.9201C52.9917 24.2968 52.1774 22.8601 50.9357 21.9971ZM5.4436 33.1V26.1665C5.4436 24.0747 7.28458 22.7137 9.26151 22.8273V36.4392C7.28353 36.5488 5.4436 35.1981 5.4436 33.1ZM12.023 20.709C12.7266 20.709 13.2989 21.2814 13.2989 21.9848V37.0353C13.2286 38.7284 10.8168 38.7269 10.7472 37.0353V21.9848C10.7472 21.2813 11.3196 20.709 12.023 20.709ZM37.5194 47.565H33.7096C32.9693 47.565 32.3669 46.9627 32.3669 46.2223C32.3669 45.4819 32.9692 44.8797 33.7096 44.8797H37.5194C39.2996 44.9531 39.301 47.4911 37.5194 47.565ZM49.474 21.3137C48.9045 21.1581 48.2974 21.1173 47.7083 21.1459C47.5613 18.9736 47.0523 16.8658 46.192 14.8684C46.6179 14.3049 46.9809 13.6916 47.2707 13.0387C48.5638 15.6095 49.3162 18.4304 49.474 21.3137ZM38.789 17.1268C37.584 17.1268 36.4279 16.8604 35.3528 16.3353C35.1559 16.2439 34.9579 16.2386 34.7586 16.319L33.7151 16.7599V15.5863C33.7151 15.3856 33.6311 15.1941 33.4834 15.0582C28.2588 10.2636 31.6902 1.44806 38.7891 1.45198C49.188 1.88221 49.1857 16.6977 38.789 17.1268ZM51.5567 32.8536C51.5567 34.9681 49.6898 36.3131 47.7008 36.1928C47.6918 35.4217 47.6867 34.6506 47.6881 33.8795C47.6881 32.9518 46.2531 32.9518 46.2531 33.8795V37.0352C46.2531 37.7388 45.6807 38.3111 44.9772 38.3111C44.2738 38.3111 43.7014 37.7388 43.7014 37.0352V21.9848C43.7695 20.2963 46.1815 20.2886 46.2531 21.9848V30.0598C46.2531 30.9875 47.6881 30.9875 47.6881 30.0598V22.581C49.6821 22.4681 51.5567 23.7875 51.5567 25.9201V32.8536Z" fill="#E94E1B"/>
<path d="M35.0278 40.4215C35.5966 40.5578 35.9289 40.3376 36.0246 39.7605V37.4177C42.8986 30.7342 38.1024 18.9232 28.5 18.9356C22.559 18.9355 17.7256 23.7681 17.7256 29.7081C17.6345 37.4149 25.9449 42.7807 32.9244 39.5329L35.0278 40.4215ZM32.5941 38.1027C26.5266 41.1581 19.0773 36.5089 19.1607 29.708C19.1607 24.5593 23.3503 20.3705 28.5001 20.3705C36.9586 20.3667 41.0458 30.8697 34.8213 36.5812C34.6736 36.717 34.5896 36.9085 34.5896 37.1093V38.6784L33.1883 38.0864C32.9972 38.0057 32.7805 38.0116 32.5941 38.1027Z" fill="#E94E1B"/>
<path d="M26.5811 26.4009H30.4195C31.3472 26.4009 31.3472 24.9658 30.4195 24.9658H26.5811C25.6533 24.9658 25.6533 26.4009 26.5811 26.4009Z" fill="#E94E1B"/>
<path d="M30.4194 33.0146H26.581C25.6533 33.0146 25.6533 34.4497 26.581 34.4497H30.4194C31.3471 34.4497 31.3471 33.0146 30.4194 33.0146Z" fill="#E94E1B"/>
<path d="M32.4727 28.9902H24.5273C23.5996 28.9902 23.5996 30.4253 24.5273 30.4253H32.4727C33.4005 30.4253 33.4005 28.9902 32.4727 28.9902Z" fill="#E94E1B"/>
<path d="M38.8519 3.81305C37.157 3.78062 35.7241 5.18209 35.7241 6.87727C35.7241 7.80499 37.1592 7.80499 37.1592 6.87727C37.1592 5.99395 37.9368 5.22849 38.823 5.24782C39.6725 5.26494 40.3725 5.94219 40.4166 6.78964C40.4644 7.71094 39.7128 8.50711 38.789 8.50711C38.3927 8.50711 38.0715 8.82837 38.0715 9.22464V11.6792C38.0715 12.0754 38.3927 12.3967 38.789 12.3967C39.1853 12.3967 39.5065 12.0754 39.5065 11.6792V9.85606C40.9239 9.51232 41.9253 8.17265 41.8496 6.71521C41.7668 5.1201 40.45 3.84529 38.8519 3.81305Z" fill="#E94E1B"/>
<path d="M38.7891 13.4258C37.8657 13.4258 37.8641 14.8608 38.7891 14.8608C39.7124 14.8608 39.7139 13.4258 38.7891 13.4258Z" fill="#E94E1B"/>
</g>
<defs>
<filter id="filter0_d" x="0" y="0" width="57" height="57" filterUnits="userSpaceOnUse" color-interpolation-filters="sRGB">
<feFlood flood-opacity="0" result="BackgroundImageFix"/>
<feColorMatrix in="SourceAlpha" type="matrix" values="0 0 0 0 0 0 0 0 0 0 0 0 0 0 0 0 0 0 127 0"/>
<feOffset dy="4"/>
<feGaussianBlur stdDeviation="2"/>
<feColorMatrix type="matrix" values="0 0 0 0 0 0 0 0 0 0 0 0 0 0 0 0 0 0 0.25 0"/>
<feBlend mode="normal" in2="BackgroundImageFix" result="effect1_dropShadow"/>
<feBlend mode="normal" in="SourceGraphic" in2="effect1_dropShadow" result="shape"/>
</filter>
<clipPath id="clip0">
<rect width="49" height="49" fill="white" transform="translate(4)"/>
</clipPath>
</defs>
</svg>
