<svg width="15" height="15" viewBox="0 0 15 15" fill="none" xmlns="http://www.w3.org/2000/svg">
<g clip-path="url(#clip0)">
<path d="M7.49901 10.5966C9.70382 10.5966 11.4912 8.80929 11.4912 6.60448C11.4912 4.39966 9.70382 2.6123 7.49901 2.6123C5.29419 2.6123 3.50684 4.39966 3.50684 6.60448C3.50684 8.80929 5.29419 10.5966 7.49901 10.5966Z" fill="#E94E1B"/>
<path d="M12.1908 1.94304C10.9378 0.690059 9.2718 0 7.49977 0C5.72775 0 4.06178 0.690059 2.80879 1.94304C1.55578 3.19609 0.865723 4.86203 0.865723 6.63405C0.865723 9.76024 3.05126 12.4592 6.08745 13.1169L7.49977 15L8.91212 13.1169C11.9483 12.4592 14.1338 9.76024 14.1338 6.63405C14.1338 4.86203 13.4438 3.19609 12.1908 1.94304V1.94304ZM7.49977 1.7319C10.1867 1.7319 12.3726 3.91785 12.3726 6.6047C12.3726 9.29155 10.1867 11.4775 7.49977 11.4775C4.81289 11.4775 2.62697 9.29155 2.62697 6.6047C2.62697 3.91785 4.81289 1.7319 7.49977 1.7319V1.7319Z" fill="#E94E1B"/>
</g>
<defs>
<clipPath id="clip0">
<rect width="15" height="15" fill="white"/>
</clipPath>
</defs>
</svg>
