<svg width="30" height="30" viewBox="0 0 30 30" fill="none" xmlns="http://www.w3.org/2000/svg">
<g clip-path="url(#clip0)">
<path d="M29.446 11.6625L29.4462 11.663C29.582 12.0812 29.4559 12.5377 29.1249 12.8273L29.1245 12.8277L22.5795 18.5666L22.3556 18.7628L22.4215 19.0532L24.3515 27.5545C24.4486 27.9836 24.2821 28.4271 23.9256 28.6854L23.9256 28.6854C23.57 28.9432 23.0982 28.9632 22.7242 28.7382L22.7231 28.7375L15.2567 24.2735L15.0002 24.1202L14.7436 24.2735L7.27458 28.7375L7.27436 28.7376C7.0993 28.8424 6.90669 28.8942 6.71373 28.8942C6.48942 28.8942 6.26582 28.8245 6.07269 28.685C5.71735 28.428 5.55025 27.9853 5.64746 27.5545C5.64748 27.5544 5.6475 27.5543 5.64752 27.5543L7.57739 19.0532L7.64329 18.7629L7.41947 18.5666L0.874429 12.8265L0.873481 12.8257C0.543842 12.5381 0.418112 12.0812 0.553998 11.6633C0.689791 11.2457 1.0583 10.9508 1.49531 10.9102C1.49547 10.9102 1.49563 10.9102 1.4958 10.9102L10.1552 10.124L10.4525 10.097L10.5697 9.82256L13.9934 1.81048C13.9935 1.81033 13.9935 1.81019 13.9936 1.81004C14.1677 1.40452 14.5624 1.14453 15.0002 1.14453C15.4381 1.14453 15.8328 1.4047 16.0068 1.809C16.0069 1.80916 16.007 1.80933 16.007 1.8095L19.4305 9.82253L19.5478 10.097L19.8451 10.124L28.5039 10.9103L28.5043 10.9103C28.9419 10.9497 29.3112 11.2455 29.446 11.6625Z" stroke="black"/>
</g>
<defs>
<clipPath id="clip0">
<rect width="30" height="30" fill="white"/>
</clipPath>
</defs>
</svg>
