<svg width="17" height="20" viewBox="0 0 17 20" fill="none" xmlns="http://www.w3.org/2000/svg">
<path d="M16.9461 4.9223C16.8929 4.83257 16.8051 4.7671 16.7021 4.7403L13.6881 3.95522C13.7289 3.84072 13.759 3.72186 13.7781 3.60002C14.233 3.46181 14.6124 3.16728 14.8522 2.76357C15.1053 2.33743 15.1725 1.84098 15.0415 1.36567C14.771 0.384447 13.7297 -0.199893 12.7206 0.0629601C12.0717 0.231985 11.5921 0.710856 11.4037 1.29188C11.3277 1.30313 11.2522 1.3177 11.178 1.33707C10.6401 1.47715 10.1907 1.81247 9.91224 2.28122C9.79475 2.47907 9.71411 2.69079 9.67047 2.90865L4.10599 1.45918C4.00297 1.43231 3.89335 1.44641 3.80109 1.49821C3.70879 1.55 3.64145 1.63532 3.61388 1.7354L0.0137022 14.7971C-0.0139028 14.8972 0.000562684 15.0038 0.0538439 15.0935C0.107125 15.1833 0.194883 15.2487 0.297829 15.2755L2.88868 15.9504V19.6094C2.88868 19.8251 3.06857 20 3.2905 20H16.331C16.553 20 16.7328 19.8251 16.7328 19.6094V6.13828L16.9863 5.2187C17.0139 5.11866 16.9995 5.01202 16.9461 4.9223V4.9223ZM12.9286 0.817614C13.51 0.666441 14.1095 1.00277 14.2652 1.56785C14.3407 1.84161 14.302 2.12755 14.1562 2.37294C14.0105 2.61837 13.7751 2.79392 13.4935 2.86728C13.2119 2.94056 12.9178 2.90298 12.6654 2.7613C12.4129 2.61958 12.2323 2.39083 12.1568 2.11708C12.0011 1.552 12.3473 0.969061 12.9286 0.817614V0.817614ZM10.6082 2.67189C10.7705 2.39853 11.0276 2.19931 11.3359 2.10606C11.3465 2.17712 11.361 2.24829 11.3806 2.31927C11.5116 2.79458 11.8251 3.19185 12.2635 3.43791C12.4754 3.55682 12.7042 3.63291 12.9392 3.66607C12.8104 4.06448 12.4801 4.38491 12.049 4.49721C11.3668 4.67483 10.663 4.27991 10.4802 3.61674C10.3917 3.29549 10.4371 2.95994 10.6082 2.67189V2.67189ZM4.28613 2.31489L9.67935 3.71979C9.6867 3.75291 9.6949 3.78596 9.70398 3.81893C9.76506 4.04057 9.8621 4.2437 9.98702 4.42421L9.56592 4.83358C9.40901 4.98612 9.40901 5.23347 9.56592 5.38605C9.64439 5.4623 9.74722 5.50046 9.85004 5.50046C9.95287 5.50046 10.0557 5.4623 10.1342 5.38605L10.5562 4.97577C10.895 5.19659 11.2984 5.32113 11.7179 5.32113C11.896 5.32113 12.077 5.29874 12.2569 5.25187C12.6546 5.14827 13.0001 4.93593 13.2629 4.65327L16.106 5.39382L13.3889 15.2518L11.2578 14.6967C11.0434 14.6408 10.8231 14.7645 10.7657 14.9729L10.1946 17.0447L0.893968 14.622L4.28613 2.31489ZM12.6321 15.8635L11.118 16.7133L11.438 15.5525L12.6321 15.8635ZM15.9292 19.2188H3.69232V16.1598L10.3748 17.9004C10.409 17.9094 10.444 17.9138 10.4788 17.9138C10.5487 17.9138 10.6181 17.896 10.6797 17.8614L13.8739 16.0686C13.9662 16.0168 14.0336 15.9315 14.0612 15.8314L15.9292 9.05397V19.2188H15.9292Z" fill="#E94E1B"/>
<path d="M4.97371 7.36766L12.9122 9.43557C12.947 9.44463 12.982 9.44901 13.0164 9.44901C13.1938 9.44901 13.3562 9.33389 13.4043 9.15935C13.4618 8.95099 13.3346 8.73681 13.1202 8.68095L5.18173 6.61304C4.96728 6.55714 4.74704 6.68085 4.68958 6.88925C4.63212 7.09761 4.75934 7.31183 4.97371 7.36766V7.36766Z" fill="#E94E1B"/>
<path d="M4.55572 8.88523L12.4942 10.9531C12.529 10.9622 12.564 10.9666 12.5985 10.9666C12.7759 10.9666 12.9383 10.8515 12.9864 10.6769C13.0438 10.4686 12.9166 10.2544 12.7022 10.1985L4.76375 8.13062C4.54942 8.07472 4.32902 8.19843 4.2716 8.40683C4.21418 8.61519 4.34139 8.82937 4.55572 8.88523V8.88523Z" fill="#E94E1B"/>
<path d="M6.5675 10.2251L4.3453 9.64624C4.13093 9.59034 3.91058 9.71405 3.85316 9.92245C3.7957 10.1308 3.92291 10.345 4.13728 10.4008L6.35948 10.9797C6.39432 10.9887 6.42931 10.9931 6.46375 10.9931C6.64115 10.9931 6.80353 10.878 6.85162 10.7035C6.90908 10.4951 6.78187 10.2809 6.5675 10.2251V10.2251Z" fill="#E94E1B"/>
<path d="M8.21054 10.666H8.21026C7.98833 10.666 7.80859 10.8409 7.80859 11.0566C7.80859 11.2723 7.98861 11.4473 8.21054 11.4473C8.43246 11.4473 8.61236 11.2723 8.61236 11.0566C8.61236 10.8409 8.43246 10.666 8.21054 10.666V10.666Z" fill="#E94E1B"/>
</svg>
