<svg width="118" height="118" viewBox="0 0 118 118" fill="none" xmlns="http://www.w3.org/2000/svg">
<g clip-path="url(#clip0)">
<path d="M117.97 57.075C116.98 26.0773 91.923 1.0215 60.9261 0.0315974C44.0596 -0.503531 28.28 5.91636 16.6181 17.9567C5.40695 29.5316 -0.483606 44.791 0.031642 60.9261C1.02072 91.923 26.0773 116.98 57.0742 117.969C57.7195 117.989 58.359 117.999 59.0002 117.999C75.1153 117.999 90.1669 111.622 101.382 100.043C112.593 88.4695 118.485 73.2092 117.97 57.075ZM92.4573 91.3994C83.6037 100.541 71.7215 105.575 59.0002 105.575C58.4916 105.575 57.9829 105.566 57.4702 105.551C33.0067 104.769 13.2318 84.9944 12.4498 60.5301C12.043 47.7881 16.6927 35.7386 25.543 26.6016C34.3967 17.4606 46.2789 12.4265 59.0002 12.4265C59.5088 12.4265 60.0174 12.4348 60.5302 12.4506C84.9937 13.2317 104.769 33.0066 105.551 57.4709C105.957 70.213 101.307 82.2625 92.4573 91.3994Z" fill="white" fill-opacity="0.32"/>
<path d="M78.3519 55.5722L52.1885 36.8129C49.3978 34.8115 45.5127 36.8062 45.5127 40.2407V77.7601C45.5127 81.1946 49.3978 83.1893 52.1885 81.188L78.351 62.4278C80.6986 60.7454 80.6986 57.2554 78.3519 55.5722Z" fill="white"/>
</g>
<defs>
<clipPath id="clip0">
<rect width="118" height="118" fill="white"/>
</clipPath>
</defs>
</svg>
