<svg width="20" height="19" viewBox="0 0 20 19" fill="none" xmlns="http://www.w3.org/2000/svg">
<g clip-path="url(#clip0)">
<path d="M10.7729 19H8.99956C8.40027 19 7.8944 18.5511 7.82315 17.955L7.63394 16.4698C7.25631 16.3471 6.89215 16.1959 6.54619 16.0194L5.36344 16.9385C4.88369 17.3098 4.2084 17.267 3.79198 16.8388L2.54511 15.5919C2.11998 15.1794 2.07723 14.5041 2.44852 14.0252L3.36765 12.8416C3.19031 12.4957 3.03911 12.1315 2.91719 11.7539L1.42886 11.5647C0.835106 11.4918 0.38623 10.986 0.38623 10.3867V8.61333C0.38623 8.01404 0.835106 7.50817 1.43123 7.43692L2.9164 7.24771C3.03911 6.87008 3.19031 6.50592 3.36686 6.15996L2.44852 4.97721C2.07644 4.49746 2.11998 3.82138 2.54906 3.40496L3.79594 2.15808C4.2084 1.73296 4.88448 1.691 5.36265 2.0615L6.5454 2.98142C6.89136 2.80488 7.25552 2.65367 7.63394 2.53096L7.82315 1.04263C7.8944 0.448875 8.40027 0 8.99956 0H10.7729C11.3722 0 11.8781 0.448875 11.9493 1.045L12.1385 2.53017C12.5169 2.65288 12.8811 2.80408 13.2271 2.98063L14.4098 2.0615C14.8904 1.69021 15.5649 1.73296 15.9813 2.16204L17.2281 3.40892C17.6533 3.82138 17.696 4.49667 17.3247 4.97563L16.4056 6.15917C16.5829 6.50513 16.7341 6.86929 16.8561 7.24692L18.3444 7.43612C18.9374 7.50817 19.3862 8.01404 19.3862 8.61333V10.3867C19.3862 10.986 18.9374 11.4918 18.3412 11.5631L16.8561 11.7523C16.7334 12.1299 16.5821 12.4941 16.4056 12.84L17.3247 14.0228C17.6968 14.5025 17.6533 15.1778 17.2242 15.5943L15.9773 16.8411C15.5649 17.2663 14.8888 17.3098 14.4106 16.9377L13.2271 16.0186C12.8811 16.1959 12.5169 16.3471 12.1393 16.469L11.9501 17.9574C11.8781 18.5511 11.3722 19 10.7729 19ZM6.50581 15.1525C6.57152 15.1525 6.63881 15.1691 6.69898 15.2024C7.13519 15.4462 7.60781 15.6425 8.1034 15.785C8.2554 15.8286 8.36702 15.9584 8.38681 16.1152L8.60848 17.8568C8.63223 18.0555 8.80402 18.2083 8.99956 18.2083H10.7729C10.9684 18.2083 11.1402 18.0555 11.1632 17.8608L11.3856 16.116C11.4054 15.9592 11.5171 15.8294 11.6691 15.7858C12.1646 15.6433 12.6373 15.447 13.0735 15.2032C13.212 15.1256 13.3846 15.139 13.5089 15.2364L14.8943 16.3131C15.0534 16.4366 15.2767 16.4263 15.4129 16.2862L16.6676 15.0314C16.8109 14.892 16.822 14.6688 16.6985 14.5089L15.6219 13.1235C15.5245 12.9984 15.511 12.8266 15.5886 12.688C15.8324 12.2518 16.0288 11.7792 16.1713 11.2836C16.2148 11.1316 16.3446 11.02 16.5014 11.0002L18.2431 10.7785C18.4418 10.754 18.5946 10.5822 18.5946 10.3867V8.61333C18.5946 8.41779 18.4418 8.246 18.247 8.22304L16.5022 8.00058C16.3454 7.98079 16.2156 7.86917 16.1721 7.71717C16.0296 7.22158 15.8332 6.74896 15.5894 6.31275C15.5118 6.17421 15.5245 6.00242 15.6226 5.87733L16.6993 4.49192C16.8236 4.332 16.8125 4.10875 16.6732 3.97417L15.4184 2.71938C15.2799 2.57529 15.0558 2.56421 14.8959 2.6885L13.5105 3.76517C13.3846 3.86254 13.2128 3.876 13.0743 3.79842C12.6396 3.55458 12.167 3.35904 11.6699 3.21575C11.5179 3.17221 11.4062 3.04238 11.3864 2.88563L11.1648 1.14396C11.1402 0.944458 10.9684 0.791667 10.7729 0.791667H8.99956C8.80402 0.791667 8.63223 0.944458 8.60927 1.13921L8.38681 2.88404C8.36702 3.04079 8.2554 3.17062 8.1034 3.21496C7.60623 3.35746 7.13361 3.55379 6.69898 3.79683C6.56044 3.87521 6.38865 3.86096 6.26277 3.76438L4.87736 2.68771C4.71744 2.56342 4.49498 2.5745 4.35961 2.71383L3.10481 3.96942C2.96152 4.10875 2.95044 4.332 3.07394 4.49192L4.15061 5.87733C4.24798 6.00242 4.26144 6.17421 4.18386 6.31275C3.93923 6.74896 3.74369 7.22158 3.60119 7.71717C3.55765 7.86917 3.42781 7.98079 3.27106 8.00058L1.5294 8.22225C1.33069 8.246 1.1779 8.41779 1.1779 8.61333V10.3867C1.1779 10.5822 1.33069 10.754 1.52544 10.777L3.27027 10.9994C3.42702 11.0192 3.55686 11.1308 3.6004 11.2828C3.7429 11.7784 3.93923 12.251 4.18306 12.6872C4.26065 12.8258 4.24798 12.9976 4.14981 13.1227L3.07315 14.5081C2.94886 14.668 2.95994 14.8912 3.09927 15.0258L4.35406 16.2806C4.49261 16.4239 4.71506 16.435 4.87656 16.3115L6.26198 15.2348C6.33402 15.181 6.41952 15.1525 6.50581 15.1525Z" fill="white"/>
<path d="M9.88607 13.4577C7.70344 13.4577 5.92773 11.682 5.92773 9.49935C5.92773 7.31672 7.70344 5.54102 9.88607 5.54102C12.0687 5.54102 13.8444 7.31672 13.8444 9.49935C13.8444 11.682 12.0687 13.4577 9.88607 13.4577ZM9.88607 6.33268C8.13965 6.33268 6.7194 7.75293 6.7194 9.49935C6.7194 11.2458 8.13965 12.666 9.88607 12.666C11.6325 12.666 13.0527 11.2458 13.0527 9.49935C13.0527 7.75293 11.6325 6.33268 9.88607 6.33268Z" fill="white"/>
</g>
<defs>
<clipPath id="clip0">
<rect width="19" height="19" fill="white" transform="translate(0.38623)"/>
</clipPath>
</defs>
</svg>
