<svg width="58" height="58" viewBox="0 0 58 58" fill="none" xmlns="http://www.w3.org/2000/svg">
<path d="M14.5 0C12.5062 0 10.875 1.63125 10.875 3.625V54.375C10.875 56.3688 12.5062 58 14.5 58H50.75C52.7438 58 54.375 56.3688 54.375 54.375V14.5L39.875 0H14.5Z" fill="#E2E5E7"/>
<path d="M43.5 14.5H54.375L39.875 0V10.875C39.875 12.8687 41.5062 14.5 43.5 14.5Z" fill="#B0B7BD"/>
<path d="M54.375 25.375L43.5 14.5H54.375V25.375Z" fill="#CAD1D8"/>
<path d="M47.125 47.125C47.125 48.1219 46.3094 48.9375 45.3125 48.9375H5.4375C4.44062 48.9375 3.625 48.1219 3.625 47.125V29C3.625 28.0031 4.44062 27.1875 5.4375 27.1875H45.3125C46.3094 27.1875 47.125 28.0031 47.125 29V47.125Z" fill="#F15642"/>
<path d="M11.5254 34.3413C11.5254 33.8628 11.9024 33.3408 12.5096 33.3408H15.8573C17.7423 33.3408 19.4388 34.6023 19.4388 37.0202C19.4388 39.3112 17.7423 40.5872 15.8573 40.5872H13.4376V42.5012C13.4376 43.1392 13.0316 43.4999 12.5096 43.4999C12.0311 43.4999 11.5254 43.1392 11.5254 42.5012V34.3413ZM13.4376 35.166V38.7765H15.8573C16.8288 38.7765 17.5973 37.9192 17.5973 37.0202C17.5973 36.007 16.8288 35.166 15.8573 35.166H13.4376Z" fill="white"/>
<path d="M22.2769 43.5002C21.7984 43.5002 21.2764 43.2392 21.2764 42.6031V34.3707C21.2764 33.8505 21.7984 33.4717 22.2769 33.4717H25.5956C32.2184 33.4717 32.0734 43.5002 25.7261 43.5002H22.2769ZM23.1904 35.2407V41.7331H25.5956C29.5087 41.7331 29.6827 35.2407 25.5956 35.2407H23.1904Z" fill="white"/>
<path d="M34.4222 35.3565V37.6602H38.1179C38.6399 37.6602 39.1619 38.1822 39.1619 38.6879C39.1619 39.1664 38.6399 39.5579 38.1179 39.5579H34.4222V42.6011C34.4222 43.1086 34.0616 43.4983 33.5541 43.4983C32.9161 43.4983 32.5264 43.1086 32.5264 42.6011V34.3687C32.5264 33.8485 32.9179 33.4697 33.5541 33.4697H38.6417C39.2797 33.4697 39.6567 33.8485 39.6567 34.3687C39.6567 34.8327 39.2797 35.3547 38.6417 35.3547H34.4222V35.3565Z" fill="white"/>
<path d="M45.3125 48.9375H10.875V50.75H45.3125C46.3094 50.75 47.125 49.9344 47.125 48.9375V47.125C47.125 48.1219 46.3094 48.9375 45.3125 48.9375Z" fill="#CAD1D8"/>
</svg>
