<svg width="15" height="15" viewBox="0 0 15 15" fill="none" xmlns="http://www.w3.org/2000/svg">
<path d="M14.5956 6.80311C14.7637 6.67182 14.8885 6.48868 14.9523 6.27935C15.0162 6.07003 15.0159 5.84501 14.9515 5.63587C14.8871 5.42672 14.7619 5.24393 14.5934 5.11312C14.4249 4.98231 14.2215 4.91005 14.0118 4.90646L9.9391 4.74524C9.91907 4.7438 9.89988 4.73631 9.88382 4.72369C9.86776 4.71107 9.85553 4.69386 9.8486 4.67412L8.44125 0.691163C8.37054 0.488525 8.24211 0.313548 8.07335 0.189924C7.90459 0.0663003 7.70365 0 7.49774 0C7.29183 0 7.09089 0.0663003 6.92213 0.189924C6.75337 0.313548 6.62494 0.488525 6.55423 0.691163L5.15141 4.68834C5.14447 4.70808 5.13224 4.7253 5.11618 4.73792C5.10012 4.75054 5.08093 4.75802 5.0609 4.75947L0.988196 4.92068C0.778499 4.92427 0.575132 4.99654 0.40661 5.12735C0.238088 5.25815 0.112862 5.44095 0.048491 5.65009C-0.0158804 5.85924 -0.0161692 6.08425 0.0476651 6.29358C0.111499 6.5029 0.236256 6.68605 0.404441 6.81733L3.59925 9.44893C3.61524 9.46211 3.62719 9.47992 3.63363 9.50014C3.64006 9.52037 3.6407 9.54213 3.63545 9.56273L2.53582 13.6453C2.47884 13.8532 2.48436 14.0744 2.55163 14.2789C2.61891 14.4834 2.74467 14.6612 2.9118 14.7881C3.07894 14.9151 3.27934 14.985 3.48574 14.9883C3.69214 14.9917 3.89452 14.9284 4.06535 14.807L7.44117 12.4361C7.4578 12.4241 7.47753 12.4177 7.49774 12.4177C7.51795 12.4177 7.53768 12.4241 7.5543 12.4361L10.9301 14.807C11.0986 14.9325 11.3003 15 11.5071 15C11.7139 15 11.9155 14.9325 12.0841 14.807C12.2512 14.6812 12.3771 14.5043 12.4444 14.3005C12.5116 14.0967 12.517 13.8761 12.4597 13.669L11.351 9.57221C11.3451 9.55164 11.3454 9.52968 11.3519 9.50931C11.3584 9.48895 11.3707 9.47117 11.3872 9.45841L14.5956 6.80311Z" fill="white"/>
</svg>
