<svg width="19" height="19" viewBox="0 0 19 19" fill="none" xmlns="http://www.w3.org/2000/svg">
<path d="M17.4167 2.375H1.58335C0.710088 2.375 0 3.08509 0 3.95835V15.0417C0 15.9149 0.710088 16.625 1.58335 16.625H17.4167C18.2899 16.625 19 15.9149 19 15.0417V3.95835C19 3.08509 18.2899 2.375 17.4167 2.375ZM1.58335 3.16665H17.4167C17.475 3.16665 17.5264 3.18792 17.5812 3.19994C16.2104 4.4545 11.6651 8.61268 10.0745 10.0458C9.94999 10.1579 9.74938 10.2917 9.50004 10.2917C9.2507 10.2917 9.05009 10.1579 8.92521 10.0454C7.33474 8.61253 2.78918 4.45413 1.41862 3.20002C1.47346 3.18799 1.52497 3.16665 1.58335 3.16665ZM0.791654 15.0417V3.95835C0.791654 3.88079 0.815033 3.81043 0.835963 3.73955C1.88512 4.69979 5.05663 7.60115 7.11309 9.4712C5.06331 11.2319 1.89098 14.2396 0.833477 15.248C0.814811 15.1807 0.791654 15.1148 0.791654 15.0417ZM17.4167 15.8333H1.58335C1.52011 15.8333 1.46389 15.8113 1.40485 15.7972C2.49761 14.7555 5.69013 11.7305 7.70387 10.0078C7.96638 10.2459 8.20618 10.4631 8.39522 10.6334C8.72148 10.928 9.10338 11.0833 9.5 11.0833C9.89662 11.0833 10.2785 10.9279 10.6044 10.6338C10.7935 10.4634 11.0335 10.246 11.2961 10.0078C13.31 11.7303 16.5021 14.7551 17.5951 15.7972C17.5361 15.8113 17.48 15.8333 17.4167 15.8333ZM18.2083 15.0417C18.2083 15.1148 18.1852 15.1807 18.1666 15.248C17.1086 14.2391 13.9367 11.2317 11.8869 9.47124C13.9435 7.60119 17.1145 4.70009 18.164 3.73947C18.185 3.81035 18.2083 3.88075 18.2083 3.95831V15.0417Z" fill="white"/>
</svg>
