<svg width="45" height="45" viewBox="0 0 45 45" fill="none" xmlns="http://www.w3.org/2000/svg">
<g clip-path="url(#clip0)">
<path d="M38.9367 0H6.06482C2.71592 0 0.000976562 2.71483 0.000976562 6.06384V38.9359C0.000976562 42.2849 2.71581 44.9998 6.06482 44.9998H22.2771L22.3047 28.9193H18.127C17.5841 28.9193 17.1434 28.4803 17.1413 27.9374L17.1213 22.754C17.1192 22.2081 17.5612 21.7644 18.1071 21.7644H22.2772V16.7559C22.2772 10.9436 25.827 7.7788 31.0119 7.7788H35.2666C35.8109 7.7788 36.2524 8.22012 36.2524 8.76458V13.1353C36.2524 13.6795 35.8113 14.1207 35.2671 14.121L32.6561 14.1222C29.8364 14.1222 29.2904 15.4622 29.2904 17.4285V21.7645H35.4863C36.0767 21.7645 36.5347 22.2801 36.4651 22.8664L35.8508 28.0498C35.792 28.5458 35.3714 28.9195 34.8719 28.9195H29.318L29.2904 45H38.9369C42.2858 45 45.0006 42.2852 45.0006 38.9363V6.06384C45.0005 2.71483 42.2857 0 38.9367 0Z" fill="#475993"/>
</g>
<defs>
<clipPath id="clip0">
<rect width="45" height="45" fill="white"/>
</clipPath>
</defs>
</svg>
