<svg width="18" height="18" viewBox="0 0 18 18" fill="none" xmlns="http://www.w3.org/2000/svg">
<path d="M13.6994 9.50117L15.4386 11.6048C15.6246 11.8297 15.9686 11.8286 16.1534 11.6048L17.8927 9.50117C18.1429 9.19863 17.9274 8.74188 17.5354 8.74188H16.5711C16.267 4.41616 12.6337 1.02881 8.29603 1.02881C3.72806 1.02881 0 4.75756 0 9.32484C0 13.8645 3.66695 17.5278 8.12492 17.6192C8.12794 17.6192 8.13096 17.6194 8.13398 17.6194C8.24618 17.6194 8.35165 17.5762 8.43212 17.4975C8.51438 17.4169 8.5597 17.3091 8.5597 17.1939V16.4845C8.5597 16.2554 8.37335 16.0648 8.14442 16.0597C4.52526 15.9787 1.55951 12.9998 1.55951 9.32484C1.55951 5.82282 4.73699 2.90445 8.22857 2.63995C8.37373 2.62883 8.4967 2.47007 8.48571 2.32492C8.47473 2.17976 8.668 2.31197 8.22117 2.21454C4.11429 1.86853 0.514286 4.6971 0.874985 9.10168C0 13.1828 4.11429 18.0685 8.03236 16.5839H6.94286C2.79155 16.4441 0.873333 13.4589 0.873333 9.26857C0.873333 4.99215 3.94544 2.21454 8.22117 2.21454C12.2856 2.21454 15.5007 5.66984 15.7818 9.72392C15.8006 9.99487 15.8826 10.7772 16.1534 10.7772L17.4004 9.26922L15.7818 8.2971L14.1917 9.26922H15.0173C15.1618 9.26922 15.3008 9.20825 15.3985 9.10168C15.4965 8.99511 15.794 8.88607 15.7818 8.74188C15.486 5.27199 11.8293 2.39479 8.37835 2.04776C8.23347 2.03293 7.87862 2.10212 7.86406 2.24701C7.84951 2.39189 8.15115 2.6094 8.29603 2.62396C11.4924 2.94545 14.7282 5.53017 15.0069 8.74188H14.0567C13.6642 8.74188 13.4494 9.19891 13.6994 9.50117Z" fill="#EB7300"/>
</svg>
