<svg width="19" height="19" viewBox="0 0 19 19" fill="none" xmlns="http://www.w3.org/2000/svg">
<path d="M18.473 7.32837L18.4728 7.32784C18.4051 7.10916 18.2266 6.97119 18.0343 6.95311L18.0339 6.95308L12.55 6.43347L12.249 6.40495L12.1345 6.12516L9.96639 0.829847C9.96631 0.829657 9.96624 0.829466 9.96616 0.829276C9.87923 0.618869 9.69138 0.5 9.50008 0.5C9.30894 0.5 9.12112 0.618677 9.03411 0.829912C9.03405 0.830066 9.03398 0.83022 9.03392 0.830374L6.86567 6.12518L6.7511 6.40496L6.45012 6.43348L0.966196 6.95299C0.966088 6.95301 0.965979 6.95302 0.965871 6.95303C0.773543 6.97172 0.595403 7.10937 0.527079 7.32863C0.458 7.55031 0.524798 7.78674 0.681631 7.92954L0.682566 7.93039L4.82775 11.7239L5.0399 11.918L4.97876 12.199L3.75655 17.817C3.75652 17.8172 3.75649 17.8173 3.75646 17.8174C3.75645 17.8175 3.75645 17.8175 3.75645 17.8175C3.70687 18.0474 3.79489 18.2741 3.96167 18.3999C4.05245 18.4684 4.15357 18.5 4.25202 18.5C4.33663 18.5 4.42323 18.4765 4.50486 18.4255L4.50509 18.4254L9.23549 15.4752L9.50013 15.3102L9.76474 15.4753L14.4934 18.4254L14.4946 18.4262C14.6633 18.5321 14.8737 18.5239 15.0371 18.4004L15.0371 18.4003C15.2048 18.2735 15.2923 18.0461 15.2428 17.8175L18.473 7.32837ZM18.473 7.32837C18.5419 7.54999 18.4753 7.7864 18.3172 7.93075L18.3168 7.93111L14.1716 11.7238L13.9594 11.918L14.0205 12.199L15.2428 17.8172L18.473 7.32837Z" stroke="black"/>
</svg>
