<svg width="58" height="58" viewBox="0 0 58 58" fill="none" xmlns="http://www.w3.org/2000/svg">
<path d="M14.5 0C12.5062 0 10.875 1.63125 10.875 3.625V54.375C10.875 56.3688 12.5062 58 14.5 58H50.75C52.7438 58 54.375 56.3688 54.375 54.375V14.5L39.875 0H14.5Z" fill="#E2E5E7"/>
<path d="M43.5 14.5H54.375L39.875 0V10.875C39.875 12.8687 41.5062 14.5 43.5 14.5Z" fill="#B0B7BD"/>
<path d="M54.375 25.375L43.5 14.5H54.375V25.375Z" fill="#CAD1D8"/>
<path d="M47.125 47.125C47.125 48.1219 46.3094 48.9375 45.3125 48.9375H5.4375C4.44062 48.9375 3.625 48.1219 3.625 47.125V29C3.625 28.0031 4.44062 27.1875 5.4375 27.1875H45.3125C46.3094 27.1875 47.125 28.0031 47.125 29V47.125Z" fill="#F15642"/>
<path d="M11.5256 34.3414C11.5256 33.8629 11.9026 33.3409 12.5098 33.3409H15.8575C17.7425 33.3409 19.439 34.6024 19.439 37.0203C19.439 39.3113 17.7425 40.5873 15.8575 40.5873H13.4378V42.5013C13.4378 43.1393 13.0318 43.5 12.5098 43.5C12.0313 43.5 11.5256 43.1393 11.5256 42.5013V34.3414ZM13.4378 35.1661V38.7766H15.8575C16.829 38.7766 17.5975 37.9193 17.5975 37.0203C17.5975 36.0071 16.829 35.1661 15.8575 35.1661H13.4378Z" fill="white"/>
<path d="M22.2769 43.5C21.7984 43.5 21.2764 43.239 21.2764 42.6028V34.3704C21.2764 33.8502 21.7984 33.4714 22.2769 33.4714H25.5956C32.2184 33.4714 32.0734 43.5 25.7261 43.5H22.2769ZM23.1904 35.2404V41.7328H25.5956C29.5087 41.7328 29.6827 35.2404 25.5956 35.2404H23.1904Z" fill="white"/>
<path d="M34.4227 35.3564V37.6601H38.1184C38.6404 37.6601 39.1624 38.1821 39.1624 38.6878C39.1624 39.1663 38.6404 39.5578 38.1184 39.5578H34.4227V42.601C34.4227 43.1085 34.062 43.4982 33.5545 43.4982C32.9165 43.4982 32.5269 43.1085 32.5269 42.601V34.3686C32.5269 33.8484 32.9184 33.4696 33.5545 33.4696H38.6422C39.2802 33.4696 39.6572 33.8484 39.6572 34.3686C39.6572 34.8326 39.2802 35.3546 38.6422 35.3546H34.4227V35.3564Z" fill="white"/>
<path d="M45.3125 48.9375H10.875V50.75H45.3125C46.3094 50.75 47.125 49.9344 47.125 48.9375V47.125C47.125 48.1219 46.3094 48.9375 45.3125 48.9375Z" fill="#CAD1D8"/>
</svg>
