<svg width="58" height="58" viewBox="0 0 58 58" fill="none" xmlns="http://www.w3.org/2000/svg">
<g clip-path="url(#clip0)">
<path d="M48.5525 53.5125L4.55476 48.6362C2.43935 48.4018 0.914636 46.4969 1.14902 44.3815L5.19299 7.89365C5.42749 5.77824 7.33239 4.25341 9.44769 4.48791L53.4455 9.36423C55.5609 9.59874 57.0857 11.5036 56.8512 13.6189L52.8072 50.1067C52.5729 52.2221 50.6679 53.747 48.5525 53.5125Z" fill="url(#paint0_linear)"/>
<path d="M56.8512 13.6193L55.2568 28.0094L51.7129 9.17261L53.4462 9.36458C55.5609 9.59862 57.0854 11.5033 56.8512 13.6193Z" fill="url(#paint1_linear)"/>
<path d="M54.8579 46.7345L11.3538 54.9186C9.26216 55.3121 7.24751 53.9355 6.85402 51.8438L0.0668846 15.7655C-0.326606 13.6738 1.05004 11.6592 3.14168 11.2657L46.6458 3.08153C48.7374 2.68804 50.7521 4.06469 51.1456 6.15633L57.9327 42.2347C58.3262 44.3265 56.9495 46.3411 54.8579 46.7345Z" fill="url(#paint2_linear)"/>
<path d="M52.0747 11.0933V47.2579L54.8582 46.7342C56.9499 46.3407 58.3265 44.326 57.933 42.2344L52.0747 11.0933Z" fill="url(#paint3_linear)"/>
<path d="M6.64697 50.7429L6.85407 51.8438C7.24756 53.9354 9.2622 55.3121 11.3538 54.9186L33.5502 50.7429H6.64697Z" fill="url(#paint4_linear)"/>
<path d="M48.2204 50.9682H3.95331C1.82494 50.9682 0.0996094 49.2429 0.0996094 47.1145V10.4033C0.0996094 8.27489 1.82494 6.54956 3.95331 6.54956H48.2204C50.3488 6.54956 52.0741 8.27489 52.0741 10.4033V47.1145C52.0741 49.2429 50.3488 50.9682 48.2204 50.9682Z" fill="url(#paint5_linear)"/>
<path d="M44.6125 47.3472H7.56277C5.78149 47.3472 4.3374 45.9031 4.3374 44.1218V13.396C4.3374 11.6147 5.78149 10.1707 7.56277 10.1707H44.6125C46.3938 10.1707 47.8379 11.6147 47.8379 13.396V44.1218C47.8379 45.9031 46.3938 47.3472 44.6125 47.3472Z" fill="url(#paint6_linear)"/>
<path d="M28.667 47.3475H7.56331C5.78168 47.3475 4.33691 45.9039 4.33691 44.1224V39.0854L9.69134 32.5772C11.4584 30.4274 14.7476 30.4274 16.5159 32.5772L19.8498 36.6303L28.667 47.3475Z" fill="url(#paint7_linear)"/>
<path d="M47.8386 36.0232V44.1224C47.8386 45.9041 46.3938 47.3476 44.6122 47.3476H11.0327L19.8501 36.6304L30.682 23.4629C32.449 21.3144 35.7395 21.3144 37.5065 23.4629L47.8386 36.0232Z" fill="url(#paint8_linear)"/>
<path d="M15.6057 22.5338C18.1318 22.5338 20.1796 20.486 20.1796 17.9599C20.1796 15.4338 18.1318 13.386 15.6057 13.386C13.0796 13.386 11.0317 15.4338 11.0317 17.9599C11.0317 20.486 13.0796 22.5338 15.6057 22.5338Z" fill="url(#paint9_linear)"/>
</g>
<defs>
<linearGradient id="paint0_linear" x1="14.8201" y1="11.2786" x2="47.5304" y2="52.1295" gradientUnits="userSpaceOnUse">
<stop stop-color="#FFA936"/>
<stop offset="0.4112" stop-color="#FF8548"/>
<stop offset="0.7781" stop-color="#FF6C54"/>
<stop offset="1" stop-color="#FF6359"/>
</linearGradient>
<linearGradient id="paint1_linear" x1="55.7811" y1="18.0845" x2="53.0452" y2="18.688" gradientUnits="userSpaceOnUse">
<stop stop-color="#F82814" stop-opacity="0"/>
<stop offset="1" stop-color="#C0272D"/>
</linearGradient>
<linearGradient id="paint2_linear" x1="10.2618" y1="16.1972" x2="53.4808" y2="45.7254" gradientUnits="userSpaceOnUse">
<stop stop-color="#CDEC7A"/>
<stop offset="0.2157" stop-color="#B0E995"/>
<stop offset="0.5613" stop-color="#87E4BB"/>
<stop offset="0.8347" stop-color="#6EE1D2"/>
<stop offset="1" stop-color="#65E0DB"/>
</linearGradient>
<linearGradient id="paint3_linear" x1="55.917" y1="29.1756" x2="51.2492" y2="29.1756" gradientUnits="userSpaceOnUse">
<stop stop-color="#CDEC7A" stop-opacity="0"/>
<stop offset="0.2354" stop-color="#9AD57D" stop-opacity="0.235"/>
<stop offset="0.6035" stop-color="#51B482" stop-opacity="0.604"/>
<stop offset="0.8679" stop-color="#239F85" stop-opacity="0.868"/>
<stop offset="1" stop-color="#119786"/>
</linearGradient>
<linearGradient id="paint4_linear" x1="20.0985" y1="53.1005" x2="20.0985" y2="50.3351" gradientUnits="userSpaceOnUse">
<stop stop-color="#CDEC7A" stop-opacity="0"/>
<stop offset="0.2354" stop-color="#9AD57D" stop-opacity="0.235"/>
<stop offset="0.6035" stop-color="#51B482" stop-opacity="0.604"/>
<stop offset="0.8679" stop-color="#239F85" stop-opacity="0.868"/>
<stop offset="1" stop-color="#119786"/>
</linearGradient>
<linearGradient id="paint5_linear" x1="10.0375" y1="12.7095" x2="47.0401" y2="49.7121" gradientUnits="userSpaceOnUse">
<stop stop-color="#F8F6FB"/>
<stop offset="1" stop-color="#EFDCFB"/>
</linearGradient>
<linearGradient id="paint6_linear" x1="12.825" y1="11.5042" x2="48.9151" y2="58.4576" gradientUnits="userSpaceOnUse">
<stop stop-color="#18CEFB"/>
<stop offset="0.2969" stop-color="#2BB9F9"/>
<stop offset="0.7345" stop-color="#42A0F7"/>
<stop offset="1" stop-color="#4A97F6"/>
</linearGradient>
<linearGradient id="paint7_linear" x1="8.59662" y1="35.9981" x2="24.4077" y2="56.5684" gradientUnits="userSpaceOnUse">
<stop stop-color="#CDEC7A"/>
<stop offset="0.2154" stop-color="#B0E995" stop-opacity="0.784"/>
<stop offset="0.5604" stop-color="#87E4BB" stop-opacity="0.439"/>
<stop offset="0.8334" stop-color="#6EE1D2" stop-opacity="0.165"/>
<stop offset="0.9985" stop-color="#65E0DB" stop-opacity="0"/>
</linearGradient>
<linearGradient id="paint8_linear" x1="22.6119" y1="32.8075" x2="41.6811" y2="57.6165" gradientUnits="userSpaceOnUse">
<stop stop-color="#CDEC7A"/>
<stop offset="0.2157" stop-color="#B0E995"/>
<stop offset="0.5613" stop-color="#87E4BB"/>
<stop offset="0.8347" stop-color="#6EE1D2"/>
<stop offset="1" stop-color="#65E0DB"/>
</linearGradient>
<linearGradient id="paint9_linear" x1="13.3331" y1="15.0034" x2="19.517" y2="23.0488" gradientUnits="userSpaceOnUse">
<stop stop-color="#FFD945"/>
<stop offset="0.3043" stop-color="#FFCD3E"/>
<stop offset="0.8558" stop-color="#FFAD2B"/>
<stop offset="1" stop-color="#FFA325"/>
</linearGradient>
<clipPath id="clip0">
<rect width="58" height="58" fill="white"/>
</clipPath>
</defs>
</svg>
