<svg width="24" height="23" viewBox="0 0 24 23" fill="none" xmlns="http://www.w3.org/2000/svg">
<path id="Vector" d="M22.7944 8.31221L22.7941 8.31218L15.8671 7.68319L15.5698 7.6562L15.4525 7.38169L12.7138 0.971463C12.7137 0.971363 12.7137 0.971263 12.7136 0.971164C12.5902 0.684223 12.3104 0.5 12.0001 0.5C11.69 0.5 11.4102 0.684137 11.2866 0.972173L8.54776 7.38171L8.43046 7.65621L8.13318 7.6832L1.20584 8.3121C1.20568 8.31212 1.20552 8.31213 1.20536 8.31215C0.895613 8.34097 0.634585 8.54982 0.538297 8.84594C0.441917 9.14234 0.531162 9.46597 0.764531 9.6696L0.76548 9.67042L6.00151 14.2625L6.22533 14.4588L6.15943 14.7491L4.61556 21.5498C4.54646 21.8556 4.66504 22.1693 4.91671 22.3513C5.05409 22.4505 5.21246 22.4997 5.37098 22.4997C5.50723 22.4997 5.64358 22.4632 5.76814 22.3887L5.76836 22.3885L11.7436 18.8173L12.0002 18.664L12.2567 18.8174L18.2298 22.3886L18.2309 22.3893C18.4957 22.5485 18.8297 22.5345 19.0818 22.3517L19.0818 22.3517C19.3344 22.1687 19.4525 21.8546 19.3837 21.5503L22.7944 8.31221ZM22.7944 8.31221C23.1045 8.34015 23.3662 8.54963 23.4617 8.84513L23.9374 8.69132L23.4619 8.84568C23.5581 9.14216 23.4688 9.46561 23.2341 9.67096L23.2337 9.67131L17.9977 14.2624L17.7738 14.4587L17.8397 14.7491L19.3836 21.5501L22.7944 8.31221Z" stroke="#757575"/>
</svg>
