<svg width="12" height="10" viewBox="0 0 12 10" fill="none" xmlns="http://www.w3.org/2000/svg">
<g clip-path="url(#clip0)">
<path d="M5.84824 3.97168C4.82361 3.97168 3.99109 4.61725 3.99109 5.4118C3.99109 6.20635 4.82361 6.85191 5.84824 6.85191C6.87288 6.85191 7.7054 6.20635 7.7054 5.4118C7.7054 4.61725 6.87288 3.97168 5.84824 3.97168ZM5.70736 4.98473C5.47681 4.98473 5.28469 5.13371 5.28469 5.31248H4.66991C4.68272 4.86555 5.14381 4.508 5.70736 4.508V4.98473Z" fill="#E94E1B"/>
<path d="M11.4836 5.11352C10.856 4.50768 8.61462 2.53125 5.8481 2.53125C3.08159 2.53125 0.840197 4.50768 0.212608 5.11352C0.0332972 5.28237 0.0332972 5.53066 0.212608 5.70943C0.840197 6.31528 3.08159 8.29171 5.8481 8.29171C8.61462 8.29171 10.856 6.31528 11.4836 5.70943C11.6629 5.54059 11.6629 5.2923 11.4836 5.11352ZM5.8481 7.49716C4.36238 7.49716 3.15843 6.56357 3.15843 5.41148C3.15843 4.25939 4.36238 3.3258 5.8481 3.3258C7.33382 3.3258 8.53777 4.25939 8.53777 5.41148C8.53777 6.56357 7.33382 7.49716 5.8481 7.49716Z" fill="#E94E1B"/>
</g>
<defs>
<clipPath id="clip0">
<rect width="11.54" height="8.94858" fill="white" transform="translate(0.078125 0.9375)"/>
</clipPath>
</defs>
</svg>
